<?xml version="1.0" standalone="no"?>
<!DOCTYPE svg PUBLIC "-//W3C//DTD SVG 1.1//EN" "http://www.w3.org/Graphics/SVG/1.1/DTD/svg11.dtd" >
<svg xmlns="http://www.w3.org/2000/svg" version="1.1">
<metadata>
This is a custom SVG webfont generated by Typotheque.
</metadata>
<defs>
<font id="typotheque_webfonts_service" horiz-adv-x="510" >
<font-face units-per-em="1000" ascent="780" descent="-220" />
<missing-glyph horiz-adv-x="255" />
<glyph unicode=" "  horiz-adv-x="255" />
<glyph unicode="&#x09;" horiz-adv-x="255" />
<glyph unicode="&#xa0;" horiz-adv-x="255" />
<glyph unicode="A" horiz-adv-x="636" d="M318 707h118l148 -707h-82l-53 266h-270l-131 -266h-82zM435 330l-53 276l-11 60l-27 -61l-134 -275h225z" />
<glyph unicode="B" horiz-adv-x="614" d="M142 707h192q39 0 75 -7t64.5 -25t45.5 -48.5t17 -76.5q0 -28 -7.5 -55.5t-22.5 -50.5t-37 -40.5t-50 -25.5v-3q59 -8 95 -49.5t36 -100.5t-19.5 -101.5t-54 -70t-82.5 -40.5t-104 -13h-223zM278 66q40 0 75 6t60.5 22.5t40 46.5t14.5 77q0 43 -19.5 66t-49 34t-65 13 t-66.5 2h-86l-27 -267h123zM289 396q38 0 68 7.5t51 24.5t32 45t11 69q0 34 -12 54.5t-32.5 31t-46.5 14t-54 3.5h-91l-26 -249h100z" />
<glyph unicode="C" horiz-adv-x="638" d="M378 -10q-73 0 -132 22t-100.5 63.5t-64 100.5t-22.5 134q0 91 26.5 165t77 127t123.5 82t165 29q51 0 89.5 -6t74.5 -22l-27 -63q-19 7 -35 11.5t-32.5 7t-34.5 3.5t-41 1q-74 0 -131 -24.5t-95.5 -68t-58 -104t-19.5 -133.5q0 -62 18.5 -109.5t53 -79.5t83 -48.5 t108.5 -16.5q41 0 78 4.5t74 16.5l15 -66q-50 -16 -95.5 -21t-97.5 -5z" />
<glyph unicode="D" horiz-adv-x="728" d="M142 707h187q74 0 137.5 -18t110.5 -56t74 -97t27 -141q0 -99 -28.5 -173t-81.5 -123.5t-130 -74t-174 -24.5h-197zM279 66q154 0 236 81t82 244q0 67 -20 114.5t-57 77.5t-88 44t-113 14h-105l-61 -575h126z" />
<glyph unicode="E" horiz-adv-x="567" d="M142 707h393l-7 -65h-314l-26 -254h291l-6 -66h-292l-27 -257h337l-7 -65h-417z" />
<glyph unicode="F" horiz-adv-x="494" d="M142 707h352l-6 -65h-274l-28 -274h251l-7 -66h-252l-31 -302h-80z" />
<glyph unicode="G" horiz-adv-x="665" d="M378 -10q-73 0 -132 22t-100.5 63t-64 100.5t-22.5 134.5q0 91 27 165t77 127t122.5 82t164.5 29q45 0 87.5 -5.5t78.5 -22.5l-29 -62q-19 6 -35 10.5t-32 7t-34 3.5t-41 1q-74 0 -131 -24t-95 -67.5t-57.5 -104.5t-19.5 -134q0 -62 18.5 -109.5t52.5 -79.5t82.5 -48.5 t108.5 -16.5q27 0 51.5 3t42.5 8l27 278h80l-33 -326q-24 -9 -45 -15.5t-43.5 -10.5t-48 -6t-57.5 -2z" />
<glyph unicode="H" horiz-adv-x="738" d="M142 707h79l-33 -320h380l33 320h80l-74 -707h-80l35 322h-381l-34 -322h-80z" />
<glyph unicode="I" horiz-adv-x="278" d="M142 707h79l-74 -707h-80z" />
<glyph unicode="J" horiz-adv-x="279" d="M-89 -128q47 25 78 52t50.5 60t29.5 73.5t16 93.5l58 556h79l-58 -554q-6 -60 -19.5 -111t-39.5 -93.5t-66.5 -76.5t-100.5 -59z" />
<glyph unicode="K" horiz-adv-x="602" d="M210 367l1 16l308 324h100l-318 -327l252 -359l-73 -40zM142 707h79l-74 -707h-80z" />
<glyph unicode="L" horiz-adv-x="486" d="M142 707h79l-67 -639h307l-7 -68h-387z" />
<glyph unicode="M" horiz-adv-x="889" d="M237 707h107l53 -661l296 661h106l-20 -707h-78l24 610l-273 -610h-126l-49 612l-192 -612h-79z" />
<glyph unicode="N" horiz-adv-x="724" d="M143 707h116l264 -649l66 649h79l-76 -707h-123l-256 633l-66 -633h-80z" />
<glyph unicode="O" horiz-adv-x="801" d="M359 -11q-73 0 -128.5 22.5t-93.5 64.5t-57.5 100.5t-19.5 130.5q0 90 26.5 165.5t76.5 130t122.5 85t164.5 30.5q73 0 129 -22.5t94 -64t58 -100.5t20 -131q0 -91 -26.5 -166.5t-77 -130t-123 -84.5t-165.5 -30zM369 55q75 0 131 27t93.5 73.5t56 108.5t18.5 133 q0 56 -14.5 102.5t-43 80t-71.5 52t-101 18.5q-73 0 -128.5 -26.5t-93 -72.5t-56.5 -107.5t-19 -131.5q0 -56 14 -103t42 -81t71 -53.5t101 -19.5z" />
<glyph unicode="P" horiz-adv-x="592" d="M142 707h229q46 0 84 -11.5t65.5 -35.5t42.5 -59.5t15 -83.5q0 -69 -25 -118t-67 -80t-97.5 -45t-117.5 -14h-20l7 66h22.5t20.5 1q42 3 77 13.5t60.5 32t40 55t14.5 82.5q0 37 -11 62t-31 41t-47.5 23t-60.5 7h-128l-67 -643h-81z" />
<glyph unicode="Q" horiz-adv-x="801" d="M350 -93l6 62l383 -59l-8 -67zM359 -11q-73 0 -128.5 22.5t-93.5 64.5t-57.5 100.5t-19.5 130.5q0 90 26.5 165.5t76.5 130t122.5 85t164.5 30.5q73 0 129 -22.5t94 -64t58 -100.5t20 -131q0 -91 -26.5 -166.5t-77 -130t-123 -84.5t-165.5 -30zM369 55q75 0 131 27 t93.5 73.5t56 108.5t18.5 133q0 56 -14.5 102.5t-43 80t-71.5 52t-101 18.5q-73 0 -128.5 -26.5t-93 -72.5t-56.5 -107.5t-19 -131.5q0 -56 14 -103t42 -81t71 -53.5t101 -19.5z" />
<glyph unicode="R" horiz-adv-x="641" d="M327 304q-23 -2 -43.5 -2.5t-41.5 -0.5h-61l-33 -301h-81l75 707h218q45 0 83.5 -11t66.5 -33t43.5 -54t15.5 -74q0 -73 -39.5 -131t-120.5 -81l192 -305l-76 -36zM280 365q46 0 84 9.5t64.5 29.5t41 52t14.5 76q0 30 -11 51.5t-31.5 34.5t-48 19t-60.5 6h-118l-28 -278 h93z" />
<glyph unicode="S" horiz-adv-x="523" d="M210 -11q-24 0 -51.5 4t-54 10.5t-50 15t-40.5 18.5l31 67q37 -17 81.5 -31t89.5 -14q33 0 63.5 6.5t53 22t36 41t13.5 64.5q0 33 -21.5 57.5t-54 46t-70 42.5t-70 48t-54 62.5t-21.5 85.5q0 45 18.5 79t49.5 56.5t71.5 33.5t85.5 11q54 0 101.5 -12.5t76.5 -28.5 l-26 -62q-31 14 -72 24t-83 10q-28 0 -54 -5t-46 -18t-32 -34t-12 -52q0 -33 21.5 -58t54 -47.5t70.5 -45t70.5 -49.5t54 -61.5t21.5 -80.5q0 -52 -20 -91t-54.5 -64.5t-80 -38t-96.5 -12.5z" />
<glyph unicode="T" horiz-adv-x="571" d="M279 640h-242l8 67h563l-8 -67h-241l-67 -640h-80z" />
<glyph unicode="U" horiz-adv-x="724" d="M337 -12q-48 0 -93.5 9.5t-81.5 34t-58 66t-22 104.5v19t2 21l49 465h81l-48 -458q-1 -10 -1.5 -19t-0.5 -17q0 -47 14 -77.5t38 -48t55.5 -24.5t66.5 -7q40 0 76.5 10t65 34.5t47.5 66.5t26 106l45 434h76l-46 -437q-9 -85 -38 -140t-69.5 -86.5t-88.5 -43.5t-95 -12z " />
<glyph unicode="V" horiz-adv-x="655" d="M54 707h83l150 -650l330 650h84l-365 -707h-110z" />
<glyph unicode="W" horiz-adv-x="964" d="M77 707h83l87 -643l232 485l-32 158h83l123 -645l253 645h80l-283 -707h-111l-91 442l-211 -442h-108z" />
<glyph unicode="X" horiz-adv-x="588" d="M261 373l-163 334h89l127 -273l202 273h87l-256 -333l184 -374h-89l-148 309l-231 -309h-92z" />
<glyph unicode="Y" horiz-adv-x="591" d="M248 274l-184 433h89l144 -365l235 365h86l-291 -432l-28 -275h-80z" />
<glyph unicode="Z" horiz-adv-x="559" d="M12 70l431 565h-345l7 72h438l-6 -63l-434 -573h394l-7 -71h-485z" />
<glyph unicode="&#xc1;" horiz-adv-x="636" d="M318 707h118l148 -707h-82l-53 266h-270l-131 -266h-82zM435 330l-53 276l-11 60l-27 -61l-134 -275h225zM297 791l229 80l19 -70l-232 -64z" />
<glyph unicode="&#xc2;" horiz-adv-x="636" d="M318 707h118l148 -707h-82l-53 266h-270l-131 -266h-82zM435 330l-53 276l-11 60l-27 -61l-134 -275h225zM390 806l-155 -68l-21 54l182 85l160 -85l-30 -55z" />
<glyph unicode="&#xc4;" horiz-adv-x="636" d="M318 707h118l148 -707h-82l-53 266h-270l-131 -266h-82zM435 330l-53 276l-11 60l-27 -61l-134 -275h225zM226 808l62 56l50 -56l-62 -59zM432 808l61 56l51 -56l-63 -59z" />
<glyph unicode="&#xc5;" horiz-adv-x="636" d="M318 707h118l148 -707h-82l-53 266h-270l-131 -266h-82zM435 330l-53 276l-11 60l-27 -61l-134 -275h225zM383 736q-36 0 -63.5 19t-27.5 55q0 47 31.5 75t76.5 28q35 0 62 -21.5t27 -56.5q0 -46 -30.5 -72.5t-75.5 -26.5zM386 771q24 0 41 15.5t17 40.5q0 22 -14.5 35 t-34.5 13q-26 0 -42 -15.5t-16 -40.5q0 -23 14 -35.5t35 -12.5z" />
<glyph unicode="&#xc0;" horiz-adv-x="636" d="M219 801l27 72l211 -82l-18 -55zM318 707h118l148 -707h-82l-53 266h-270l-131 -266h-82zM435 330l-53 276l-11 60l-27 -61l-134 -275h225z" />
<glyph unicode="&#xc3;" horiz-adv-x="636" d="M318 707h118l148 -707h-82l-53 266h-270l-131 -266h-82zM435 330l-53 276l-11 60l-27 -61l-134 -275h225zM442 747q-15 0 -31 6t-31.5 12.5t-31 12.5t-28.5 6q-26 0 -40.5 -6.5t-32.5 -18.5l-27 43q22 19 46.5 32t59.5 13q18 0 34 -5.5t31 -12.5t29.5 -12.5t28.5 -5.5 q26 0 45 10t29 17l25 -45q-7 -6 -16.5 -14t-22 -15t-29.5 -12t-38 -5z" />
<glyph unicode="&#x1fa;" horiz-adv-x="636" d="M318 707h118l148 -707h-82l-53 266h-270l-131 -266h-82zM435 330l-53 276l-11 60l-27 -61l-134 -275h225zM306 963l229 80l19 -70l-232 -64zM381 726q-36 0 -63.5 19t-27.5 55q0 47 31.5 75t76.5 28q35 0 62 -21.5t27 -56.5q0 -46 -30.5 -72.5t-75.5 -26.5zM384 761 q24 0 41 15.5t17 40.5q0 22 -14.5 35t-34.5 13q-26 0 -42 -15.5t-16 -40.5q0 -23 14 -35.5t35 -12.5z" />
<glyph unicode="&#xc7;" horiz-adv-x="638" d="M378 -10q-73 0 -132 22t-100.5 63.5t-64 100.5t-22.5 134q0 91 26.5 165t77 127t123.5 82t165 29q51 0 89.5 -6t74.5 -22l-27 -63q-19 7 -35 11.5t-32.5 7t-34.5 3.5t-41 1q-74 0 -131 -24.5t-95.5 -68t-58 -104t-19.5 -133.5q0 -62 18.5 -109.5t53 -79.5t83 -48.5 t108.5 -16.5q41 0 78 4.5t74 16.5l15 -66q-50 -16 -95.5 -21t-97.5 -5zM279 -195q34 20 48.5 38.5t17.5 38.5q2 16 -3 32.5t-13 34.5h74q16 -32 13 -66q-3 -33 -28.5 -64.5t-87.5 -57.5z" />
<glyph unicode="&#x106;" horiz-adv-x="638" d="M378 -10q-73 0 -132 22t-100.5 63.5t-64 100.5t-22.5 134q0 91 26.5 165t77 127t123.5 82t165 29q51 0 89.5 -6t74.5 -22l-27 -63q-19 7 -35 11.5t-32.5 7t-34.5 3.5t-41 1q-74 0 -131 -24.5t-95.5 -68t-58 -104t-19.5 -133.5q0 -62 18.5 -109.5t53 -79.5t83 -48.5 t108.5 -16.5q41 0 78 4.5t74 16.5l15 -66q-50 -16 -95.5 -21t-97.5 -5zM336 791l229 80l19 -70l-232 -64z" />
<glyph unicode="&#x10c;" horiz-adv-x="638" d="M257 824l30 54l135 -69l155 68l21 -54l-182 -84zM378 -10q-73 0 -132 22t-100.5 63.5t-64 100.5t-22.5 134q0 91 26.5 165t77 127t123.5 82t165 29q51 0 89.5 -6t74.5 -22l-27 -63q-19 7 -35 11.5t-32.5 7t-34.5 3.5t-41 1q-74 0 -131 -24.5t-95.5 -68t-58 -104 t-19.5 -133.5q0 -62 18.5 -109.5t53 -79.5t83 -48.5t108.5 -16.5q41 0 78 4.5t74 16.5l15 -66q-50 -16 -95.5 -21t-97.5 -5z" />
<glyph unicode="&#x110;" horiz-adv-x="753" d="M62 386h71l34 321h187q74 0 137.5 -18t110.5 -56t74 -97t27 -141q0 -99 -28.5 -173t-81.5 -123.5t-130 -74t-174 -24.5h-197l34 320h-71zM304 66q154 0 236 81t82 244q0 67 -20 114.5t-57 77.5t-88 44t-113 14h-105l-27 -255h147l-7 -66h-147l-27 -254h126z" />
<glyph unicode="&#xc9;" horiz-adv-x="567" d="M258 791l229 80l19 -70l-232 -64zM142 707h393l-7 -65h-314l-26 -254h291l-6 -66h-292l-27 -257h337l-7 -65h-417z" />
<glyph unicode="&#xca;" horiz-adv-x="567" d="M142 707h393l-7 -65h-314l-26 -254h291l-6 -66h-292l-27 -257h337l-7 -65h-417zM349 806l-155 -68l-21 54l182 85l160 -85l-30 -55z" />
<glyph unicode="&#xcb;" horiz-adv-x="567" d="M195 808l62 56l50 -56l-62 -59zM401 808l61 56l51 -56l-63 -59zM142 707h393l-7 -65h-314l-26 -254h291l-6 -66h-292l-27 -257h337l-7 -65h-417z" />
<glyph unicode="&#xc8;" horiz-adv-x="567" d="M193 801l27 72l211 -82l-18 -55zM142 707h393l-7 -65h-314l-26 -254h291l-6 -66h-292l-27 -257h337l-7 -65h-417z" />
<glyph unicode="&#xcd;" horiz-adv-x="278" d="M142 707h79l-74 -707h-80zM119 791l229 80l19 -70l-232 -64z" />
<glyph unicode="&#xce;" horiz-adv-x="278" d="M142 707h79l-74 -707h-80zM196 806l-155 -68l-21 54l182 85l160 -85l-30 -55z" />
<glyph unicode="&#xcf;" horiz-adv-x="278" d="M142 707h79l-74 -707h-80zM34 808l62 56l50 -56l-62 -59zM240 808l61 56l51 -56l-63 -59z" />
<glyph unicode="&#xcc;" horiz-adv-x="278" d="M11 801l27 72l211 -82l-18 -55zM142 707h79l-74 -707h-80z" />
<glyph unicode="&#x13f;" horiz-adv-x="493" d="M142 707h79l-67 -639h307l-7 -68h-387zM294 359l73 63l60 -63l-74 -65z" />
<glyph unicode="&#xd1;" horiz-adv-x="724" d="M480 747q-15 0 -31 6t-31.5 12.5t-31 12.5t-28.5 6q-26 0 -40.5 -6.5t-32.5 -18.5l-27 43q22 19 46.5 32t59.5 13q18 0 34 -5.5t31 -12.5t29.5 -12.5t28.5 -5.5q26 0 45 10t29 17l25 -45q-7 -6 -16.5 -14t-22 -15t-29.5 -12t-38 -5zM143 707h116l264 -649l66 649h79 l-76 -707h-123l-256 633l-66 -633h-80z" />
<glyph unicode="&#xd2;" horiz-adv-x="801" d="M287 801l27 72l211 -82l-18 -55zM359 -11q-73 0 -128.5 22.5t-93.5 64.5t-57.5 100.5t-19.5 130.5q0 90 26.5 165.5t76.5 130t122.5 85t164.5 30.5q73 0 129 -22.5t94 -64t58 -100.5t20 -131q0 -91 -26.5 -166.5t-77 -130t-123 -84.5t-165.5 -30zM369 55q75 0 131 27 t93.5 73.5t56 108.5t18.5 133q0 56 -14.5 102.5t-43 80t-71.5 52t-101 18.5q-73 0 -128.5 -26.5t-93 -72.5t-56.5 -107.5t-19 -131.5q0 -56 14 -103t42 -81t71 -53.5t101 -19.5z" />
<glyph unicode="&#xd6;" horiz-adv-x="801" d="M293 808l62 56l50 -56l-62 -59zM499 808l61 56l51 -56l-63 -59zM359 -11q-73 0 -128.5 22.5t-93.5 64.5t-57.5 100.5t-19.5 130.5q0 90 26.5 165.5t76.5 130t122.5 85t164.5 30.5q73 0 129 -22.5t94 -64t58 -100.5t20 -131q0 -91 -26.5 -166.5t-77 -130t-123 -84.5 t-165.5 -30zM369 55q75 0 131 27t93.5 73.5t56 108.5t18.5 133q0 56 -14.5 102.5t-43 80t-71.5 52t-101 18.5q-73 0 -128.5 -26.5t-93 -72.5t-56.5 -107.5t-19 -131.5q0 -56 14 -103t42 -81t71 -53.5t101 -19.5z" />
<glyph unicode="&#xd5;" horiz-adv-x="801" d="M507 747q-15 0 -31 6t-31.5 12.5t-31 12.5t-28.5 6q-26 0 -40.5 -6.5t-32.5 -18.5l-27 43q22 19 46.5 32t59.5 13q18 0 34 -5.5t31 -12.5t29.5 -12.5t28.5 -5.5q26 0 45 10t29 17l25 -45q-7 -6 -16.5 -14t-22 -15t-29.5 -12t-38 -5zM359 -11q-73 0 -128.5 22.5 t-93.5 64.5t-57.5 100.5t-19.5 130.5q0 90 26.5 165.5t76.5 130t122.5 85t164.5 30.5q73 0 129 -22.5t94 -64t58 -100.5t20 -131q0 -91 -26.5 -166.5t-77 -130t-123 -84.5t-165.5 -30zM369 55q75 0 131 27t93.5 73.5t56 108.5t18.5 133q0 56 -14.5 102.5t-43 80t-71.5 52 t-101 18.5q-73 0 -128.5 -26.5t-93 -72.5t-56.5 -107.5t-19 -131.5q0 -56 14 -103t42 -81t71 -53.5t101 -19.5z" />
<glyph unicode="&#xd3;" horiz-adv-x="801" d="M346 791l229 80l19 -70l-232 -64zM359 -11q-73 0 -128.5 22.5t-93.5 64.5t-57.5 100.5t-19.5 130.5q0 90 26.5 165.5t76.5 130t122.5 85t164.5 30.5q73 0 129 -22.5t94 -64t58 -100.5t20 -131q0 -91 -26.5 -166.5t-77 -130t-123 -84.5t-165.5 -30zM369 55q75 0 131 27 t93.5 73.5t56 108.5t18.5 133q0 56 -14.5 102.5t-43 80t-71.5 52t-101 18.5q-73 0 -128.5 -26.5t-93 -72.5t-56.5 -107.5t-19 -131.5q0 -56 14 -103t42 -81t71 -53.5t101 -19.5z" />
<glyph unicode="&#xd4;" horiz-adv-x="801" d="M451 806l-155 -68l-21 54l182 85l160 -85l-30 -55zM359 -11q-73 0 -128.5 22.5t-93.5 64.5t-57.5 100.5t-19.5 130.5q0 90 26.5 165.5t76.5 130t122.5 85t164.5 30.5q73 0 129 -22.5t94 -64t58 -100.5t20 -131q0 -91 -26.5 -166.5t-77 -130t-123 -84.5t-165.5 -30z M369 55q75 0 131 27t93.5 73.5t56 108.5t18.5 133q0 56 -14.5 102.5t-43 80t-71.5 52t-101 18.5q-73 0 -128.5 -26.5t-93 -72.5t-56.5 -107.5t-19 -131.5q0 -56 14 -103t42 -81t71 -53.5t101 -19.5z" />
<glyph unicode="&#xd8;" horiz-adv-x="826" d="M47 10l84 87q-58 82 -58 210q0 90 26.5 165.5t76.5 130t122.5 85t164.5 30.5q63 0 113.5 -17t88.5 -49l79 81l41 -40l-80 -84q29 -40 44 -93t15 -116q0 -91 -26.5 -166.5t-77 -130t-123 -84.5t-165.5 -30q-127 0 -202 67l-82 -85zM609 595q-29 26 -68 40.5t-90 14.5 q-73 0 -128.5 -26.5t-93 -72.5t-56.5 -107.5t-19 -131.5q0 -45 8.5 -84t27.5 -71zM382 55q75 0 131 27t93.5 73.5t56.5 108.5t19 133q0 89 -37 151l-420 -436q28 -27 67 -42t90 -15z" />
<glyph unicode="&#x1fe;" horiz-adv-x="826" d="M47 10l84 87q-58 82 -58 210q0 90 26.5 165.5t76.5 130t122.5 85t164.5 30.5q63 0 113.5 -17t88.5 -49l79 81l41 -40l-80 -84q29 -40 44 -93t15 -116q0 -91 -26.5 -166.5t-77 -130t-123 -84.5t-165.5 -30q-127 0 -202 67l-82 -85zM609 595q-29 26 -68 40.5t-90 14.5 q-73 0 -128.5 -26.5t-93 -72.5t-56.5 -107.5t-19 -131.5q0 -45 8.5 -84t27.5 -71zM382 55q75 0 131 27t93.5 73.5t56.5 108.5t19 133q0 89 -37 151l-420 -436q28 -27 67 -42t90 -15zM335 791l229 80l19 -70l-232 -64z" />
<glyph unicode="&#x160;" horiz-adv-x="523" d="M146 824l30 54l135 -69l155 68l21 -54l-182 -84zM210 -11q-24 0 -51.5 4t-54 10.5t-50 15t-40.5 18.5l31 67q37 -17 81.5 -31t89.5 -14q33 0 63.5 6.5t53 22t36 41t13.5 64.5q0 33 -21.5 57.5t-54 46t-70 42.5t-70 48t-54 62.5t-21.5 85.5q0 45 18.5 79t49.5 56.5 t71.5 33.5t85.5 11q54 0 101.5 -12.5t76.5 -28.5l-26 -62q-31 14 -72 24t-83 10q-28 0 -54 -5t-46 -18t-32 -34t-12 -52q0 -33 21.5 -58t54 -47.5t70.5 -45t70.5 -49.5t54 -61.5t21.5 -80.5q0 -52 -20 -91t-54.5 -64.5t-80 -38t-96.5 -12.5z" />
<glyph unicode="&#xda;" horiz-adv-x="725" d="M328 791l229 80l19 -70l-232 -64zM337 -12q-48 0 -93.5 9.5t-81.5 34t-58 66t-22 104.5v19t2 21l49 465h81l-48 -458q-1 -10 -1.5 -19t-0.5 -17q0 -47 14 -77.5t38 -48t55.5 -24.5t66.5 -7q40 0 76.5 10t65 34.5t47.5 66.5t26 106l45 434h76l-46 -437q-9 -85 -38 -140 t-69.5 -86.5t-88.5 -43.5t-95 -12z" />
<glyph unicode="&#xdb;" horiz-adv-x="725" d="M337 -12q-48 0 -93.5 9.5t-81.5 34t-58 66t-22 104.5v19t2 21l49 465h81l-48 -458q-1 -10 -1.5 -19t-0.5 -17q0 -47 14 -77.5t38 -48t55.5 -24.5t66.5 -7q40 0 76.5 10t65 34.5t47.5 66.5t26 106l45 434h76l-46 -437q-9 -85 -38 -140t-69.5 -86.5t-88.5 -43.5t-95 -12z M421 806l-155 -68l-21 54l182 85l160 -85l-30 -55z" />
<glyph unicode="&#xd9;" horiz-adv-x="725" d="M267 801l27 72l211 -82l-18 -55zM337 -12q-48 0 -93.5 9.5t-81.5 34t-58 66t-22 104.5v19t2 21l49 465h81l-48 -458q-1 -10 -1.5 -19t-0.5 -17q0 -47 14 -77.5t38 -48t55.5 -24.5t66.5 -7q40 0 76.5 10t65 34.5t47.5 66.5t26 106l45 434h76l-46 -437q-9 -85 -38 -140 t-69.5 -86.5t-88.5 -43.5t-95 -12z" />
<glyph unicode="&#xdc;" horiz-adv-x="725" d="M251 808l62 56l50 -56l-62 -59zM457 808l61 56l51 -56l-63 -59zM337 -12q-48 0 -93.5 9.5t-81.5 34t-58 66t-22 104.5v19t2 21l49 465h81l-48 -458q-1 -10 -1.5 -19t-0.5 -17q0 -47 14 -77.5t38 -48t55.5 -24.5t66.5 -7q40 0 76.5 10t65 34.5t47.5 66.5t26 106l45 434h76 l-46 -437q-9 -85 -38 -140t-69.5 -86.5t-88.5 -43.5t-95 -12z" />
<glyph unicode="&#x178;" horiz-adv-x="591" d="M248 274l-184 433h89l144 -365l235 365h86l-291 -432l-28 -275h-80zM184 808l62 56l50 -56l-62 -59zM390 808l61 56l51 -56l-63 -59z" />
<glyph unicode="&#xdd;" horiz-adv-x="591" d="M248 274l-184 433h89l144 -365l235 365h86l-291 -432l-28 -275h-80zM268 791l229 80l19 -70l-232 -64z" />
<glyph unicode="&#x17d;" horiz-adv-x="559" d="M162 824l30 54l135 -69l155 68l21 -54l-182 -84zM12 70l431 565h-345l7 72h438l-6 -63l-434 -573h394l-7 -71h-485z" />
<glyph unicode="&#xde;" horiz-adv-x="591" d="M142 707h79l-13 -129h121q48 0 90.5 -7.5t74 -28t50 -57t18.5 -93.5q0 -65 -21.5 -112.5t-60 -78.5t-90.5 -46t-113 -15h-20.5t-20.5 1l6 66h19q49 -1 88.5 8t68 30.5t44 56.5t15.5 86q0 36 -11 60.5t-31 38.5t-47.5 20t-60.5 6h-126l-53 -513h-81z" />
<glyph unicode="&#xd0;" horiz-adv-x="753" d="M62 385h71l34 322h187q74 0 137.5 -18t110.5 -56t74 -97t27 -141q0 -99 -28.5 -173t-81.5 -123.5t-130 -74t-174 -24.5h-197l34 320h-71zM304 66q154 0 236 81t82 244q0 67 -20 114.5t-57 77.5t-88 44t-113 14h-105l-27 -256h147l-7 -65h-147l-27 -254h126z" />
<glyph unicode="&#xc6;" horiz-adv-x="906" d="M418 707h455l-6 -65h-314l-27 -254h293l-8 -66h-291l-28 -257h338l-7 -65h-416l35 322h-197l-206 -322h-89zM448 387l28 255h-26l-164 -255h162z" />
<glyph unicode="&#x1fc;" horiz-adv-x="906" d="M547 791l229 80l19 -70l-232 -64zM418 707h455l-6 -65h-314l-27 -254h293l-8 -66h-291l-28 -257h338l-7 -65h-416l35 322h-197l-206 -322h-89zM448 387l28 255h-26l-164 -255h162z" />
<glyph unicode="&#x152;" horiz-adv-x="1090" d="M359 -11q-73 0 -128.5 22.5t-93.5 64t-57.5 100.5t-19.5 131q0 90 26.5 165.5t76.5 130t122.5 85t164.5 30.5q68 0 119.5 -20t87.5 -56l7 65h393l-7 -65h-313l-27 -254h292l-7 -66h-291l-28 -257h337l-6 -65h-417l6 61q-46 -35 -105.5 -53.5t-131.5 -18.5zM369 56 q84 0 143 32.5t97 89.5l36 345q-25 59 -76.5 92.5t-130.5 33.5q-73 0 -128.5 -26.5t-93 -72.5t-56.5 -107t-19 -131q0 -56 14 -102.5t42 -81t71 -53.5t101 -19z" />
<glyph unicode="&#x132;" horiz-adv-x="557" d="M142 707h79l-74 -707h-80zM189 -128q47 25 78 52t50.5 60t29.5 73.5t16 93.5l58 556h79l-58 -554q-6 -60 -19.5 -111t-39.5 -93.5t-66.5 -76.5t-100.5 -59z" />
<glyph unicode="a" d="M142 -13q-29 0 -49.5 12t-34 34t-20 52t-6.5 65q0 67 22 138t63.5 129.5t102 96t137.5 37.5q25 0 53.5 -2.5t45.5 -5.5l-56 -543h-76l11 99q-58 -52 -104.5 -82t-88.5 -30zM161 59q18 0 44.5 14.5t53 34t49.5 39t34 29.5l33 307q-6 2 -16 2h-18q-56 0 -99 -31.5 t-72.5 -80t-45 -106t-15.5 -109.5q0 -42 12.5 -70.5t39.5 -28.5z" />
<glyph unicode="b" horiz-adv-x="528" d="M189 -8q-44 0 -77.5 6.5t-64.5 15.5l78 741h75l-29 -284q18 12 40 26t46 25.5t50 19t54 7.5q63 0 92.5 -41t29.5 -119q0 -65 -17 -135t-52.5 -128.5t-91 -96t-133.5 -37.5zM196 56q40 0 71.5 16t54.5 43t39 61.5t26 71.5t14.5 73.5t4.5 67.5q0 28 -4.5 46.5t-13 28.5 t-20.5 14t-27 4q-20 0 -43.5 -8t-48 -19.5t-47 -25t-39.5 -24.5l-36 -339q20 -5 33.5 -7.5t35.5 -2.5z" />
<glyph unicode="c" horiz-adv-x="450" d="M172 -12q-38 0 -63 18.5t-40 47.5t-21 63.5t-6 66.5q0 77 18 145.5t52 119.5t84 81t114 30q45 0 77 -15.5t51 -33.5l-42 -48q-16 12 -38.5 22.5t-52.5 10.5q-54 0 -89.5 -31t-56 -76t-29 -97t-8.5 -94q0 -69 17 -105t39 -36q38 0 80.5 13t101.5 44l27 -54 q-20 -12 -42.5 -25t-49 -23.5t-57 -17t-66.5 -6.5z" />
<glyph unicode="d" horiz-adv-x="513" d="M144 -13q-31 0 -51.5 14.5t-33 39t-17.5 57t-5 67.5q0 85 24.5 156t67.5 122t102.5 79t128.5 28h25l22 204h76l-81 -754h-76l11 99q-51 -51 -99.5 -81.5t-93.5 -30.5zM163 59q20 0 45 12t49.5 29.5t47.5 37.5t39 37l33 310q-7 1 -18 1h-25q-46 0 -86.5 -26t-70.5 -68.5 t-47 -97t-17 -109.5q0 -39 3.5 -64t10 -38.5t16 -18.5t20.5 -5z" />
<glyph unicode="e" horiz-adv-x="468" d="M173 -12q-38 0 -63 17t-39.5 45.5t-20.5 65.5t-6 76q0 73 17 140t50 118t82 81t114 30q36 0 62 -10t42.5 -27.5t24.5 -40t8 -47.5q0 -30 -12 -52.5t-32.5 -40t-46 -30.5t-52.5 -23l-178 -66v-27q0 -69 14 -105t49 -36q42 0 85.5 16.5t85.5 38.5l27 -57q-21 -12 -44 -24 t-49 -21t-55 -15t-63 -6zM289 353q38 15 59.5 36t21.5 44q0 35 -21 49t-45 14q-42 0 -71.5 -18t-50 -47t-33 -66t-19.5 -74z" />
<glyph unicode="f" horiz-adv-x="311" d="M121 483h-80l7 63h80l4 43q5 58 24.5 94t49 56t66 27.5t74.5 7.5q29 0 57 -5.5t46 -12.5l-20 -61q-19 5 -39.5 9.5t-52.5 4.5q-63 0 -94 -26.5t-36 -88.5l-5 -48h119l-6 -63h-119l-74 -703h-74z" />
<glyph unicode="g" horiz-adv-x="509" d="M147 -230q-30 0 -57.5 2.5t-50.5 6t-39.5 7.5t-24.5 6l18 68q11 -3 28.5 -7t37 -7.5t39.5 -6t37 -2.5q36 0 68 5t56.5 20t40.5 43t21 75l13 119q-58 -55 -103 -83.5t-90 -28.5q-58 0 -82.5 41.5t-24.5 122.5q0 78 24.5 150.5t67.5 128t102.5 88.5t128.5 33 q24 0 52.5 -2.5t46.5 -5.5l-61 -579q-6 -57 -30 -94t-58.5 -59.5t-76.5 -31.5t-83 -9zM160 59q18 0 44.5 14.5t53.5 34t49.5 39t33.5 29.5l33 307q-6 2 -15 2h-19q-50 0 -92 -28.5t-72.5 -74.5t-48 -104t-17.5 -116q0 -62 13.5 -82.5t36.5 -20.5z" />
<glyph unicode="h" horiz-adv-x="525" d="M126 754h77l-32 -298l46 38t47 33.5t50 23.5t55 9q54 0 74.5 -25.5t20.5 -79.5q0 -14 -1 -29t-3 -32l-43 -394h-76l42 378q3 31 3 55q0 29 -9.5 42t-33.5 13q-32 0 -74 -24t-106 -77l-41 -387h-76z" />
<glyph unicode="i" horiz-adv-x="233" d="M104 546h76l-57 -546h-76zM94 715l72 63l59 -63l-73 -63z" />
<glyph unicode="j" horiz-adv-x="233" d="M-76 -220q-23 0 -44 4.5t-31 8.5l19 65q10 -3 27.5 -7t37.5 -4q31 0 51 9.5t32.5 27.5t18.5 43t9 56l60 563h76l-60 -564q-6 -59 -23 -98t-42.5 -62t-59 -32.5t-71.5 -9.5zM91 715l72 63l59 -63l-73 -63z" />
<glyph unicode="k" horiz-adv-x="482" d="M173 288l201 258h90l-203 -255l181 -280l-77 -25zM125 754h77l-80 -754h-76z" />
<glyph unicode="l" horiz-adv-x="233" d="M125 754h77l-80 -754h-76z" />
<glyph unicode="m" horiz-adv-x="799" d="M104 546h77l-9 -89q17 15 38.5 33t46 33.5t51 26t54.5 10.5q52 0 73 -23.5t20 -71.5q21 18 44 35t47 30.5t49 21.5t51 8q52 0 72 -24.5t20 -78.5q0 -14 -1 -30t-3 -33l-42 -394h-76l41 378q2 17 3 30.5t1 24.5q0 32 -10 44t-36 12q-35 0 -73.5 -25t-91.5 -70l-42 -394 h-76l41 378q2 17 3.5 30.5t1.5 24.5q0 32 -10 43t-36 11q-31 0 -70.5 -25t-97.5 -75l-41 -387h-76z" />
<glyph unicode="n" horiz-adv-x="526" d="M104 546h77l-9 -90l46 38t47 33.5t50 23.5t55 9q54 0 74 -25.5t20 -79.5q0 -27 -3 -61l-43 -394h-76l41 378q2 15 3 28t1 24q0 32 -9.5 45t-34.5 13q-32 0 -73.5 -24t-105.5 -77l-41 -387h-76z" />
<glyph unicode="o" horiz-adv-x="515" d="M200 -12q-39 0 -68.5 15.5t-50 41.5t-31 61t-10.5 74q0 87 20 157t56 119.5t86 76.5t110 27q40 0 69.5 -16.5t49 -42.5t29 -60t9.5 -68q0 -65 -14 -133t-45.5 -124t-83 -92t-126.5 -36zM219 54q34 0 65.5 22.5t55 63t37.5 96t14 122.5q0 72 -23.5 105t-78.5 33 q-34 0 -65 -23.5t-54 -64t-37 -95.5t-14 -118q0 -24 3.5 -49t14 -45.5t30 -33.5t52.5 -13z" />
<glyph unicode="p" horiz-adv-x="529" d="M105 546h75l-7 -76q18 13 39 27t45 25t50.5 18.5t54.5 7.5q63 0 92.5 -41t29.5 -119q0 -65 -16.5 -135t-52 -128t-91 -95.5t-133.5 -37.5q-20 0 -37 2t-32 5l-24 -219h-76zM197 56q40 0 71.5 16t54.5 43t39 61.5t26 71.5t14.5 73.5t4.5 67.5q0 28 -5 46t-13.5 28.5 t-20.5 14.5t-26 4q-20 0 -43.5 -8t-48 -20t-47 -25.5t-38.5 -24.5l-36 -338q21 -4 33.5 -7t34.5 -3z" />
<glyph unicode="q" d="M335 99q-59 -51 -105 -81.5t-88 -30.5q-58 0 -82.5 43t-24.5 125q0 78 24.5 150t67.5 126.5t102 87t128 32.5q25 0 53.5 -2.5t45.5 -5.5l-79 -763h-76zM161 59q18 0 44.5 14.5t53 34t49.5 39t34 29.5l33 307q-4 0 -8 1q-4 0 -10.5 0.5t-15.5 0.5q-50 0 -92 -28t-73 -73.5 t-48 -103t-17 -115.5q0 -33 3.5 -53.5t10 -32.5t16 -16t20.5 -4z" />
<glyph unicode="r" horiz-adv-x="350" d="M104 546h76l-9 -91q12 11 31 28t42 33.5t49 28t53 11.5q8 0 13 -0.5t13 -1.5l-15 -71q-8 2 -11.5 1.5t-12.5 -0.5q-18 0 -41 -11t-46.5 -27t-45 -34t-37.5 -31l-40 -381h-76z" />
<glyph unicode="s" horiz-adv-x="417" d="M154 -9q-38 0 -75.5 4.5t-73.5 20.5l22 66q31 -11 64 -18t68 -7q15 0 36 3t40 11.5t32.5 24t13.5 41.5q0 27 -15.5 47.5t-39 39t-51 36t-51 39t-39 47.5t-15.5 61q0 42 14.5 70.5t39.5 46t57.5 25t67.5 7.5q38 0 78 -9t64 -21l-23 -59q-35 13 -63.5 19.5t-65.5 6.5 q-18 0 -35 -3.5t-31 -12.5t-22.5 -23.5t-8.5 -35.5q0 -27 16 -47.5t39.5 -39t51 -36.5t51 -40t39.5 -50t16 -65q0 -43 -19 -71.5t-48 -46t-64.5 -24.5t-69.5 -7z" />
<glyph unicode="t" horiz-adv-x="373" d="M181 -12q-44 0 -72 24.5t-30 81.5q-2 21 1 41l38 347h-80l7 64h81l11 112h75l-11 -112h169l-6 -64h-170l-37 -345q-5 -45 7 -62.5t38 -17.5q23 0 54.5 9.5t59.5 23.5l17 -58q-24 -16 -63.5 -30t-88.5 -14z" />
<glyph unicode="u" horiz-adv-x="525" d="M159 -11q-57 0 -80.5 26t-23.5 86q0 22 3 48l43 397h76l-42 -378q-3 -32 -3 -53q0 -34 10.5 -47t36.5 -13q24 0 47 9t45 23.5t42.5 33t40.5 37.5l42 388h76l-58 -546h-76l9 90q-43 -43 -87 -72t-101 -29z" />
<glyph unicode="v" horiz-adv-x="473" d="M43 546h83l71 -492l146 307q19 41 32 87.5t13 78.5q0 5 -0.5 9.5t-1.5 9.5h78q1 -2 1 -9v-10q0 -38 -14 -85t-34 -89l-171 -353h-111z" />
<glyph unicode="w" horiz-adv-x="776" d="M44 546h82l71 -492l180 313l-30 179h82l71 -492l8 16t17.5 36t23 49t26.5 56q32 66 71 150q10 20 18 42.5t14 44t9 42t3 36.5v10t-1 10h79q0 -2 0.5 -9.5t0.5 -9.5q0 -19 -4 -41t-10.5 -45t-15 -45.5t-18.5 -42.5l-171 -353h-113l-44 273l-157 -273h-101z" />
<glyph unicode="x" horiz-adv-x="460" d="M194 291l-114 255h81l83 -192l138 192h83l-192 -257l126 -289h-82l-93 224l-163 -224h-85z" />
<glyph unicode="y" horiz-adv-x="477" d="M173 0h-41l-85 546h82l70 -492q1 1 7.5 15.5t17 36t23.5 49t27 56.5q32 67 72 150q20 41 32.5 87.5t12.5 78.5q0 5 -0.5 9.5t-0.5 9.5h79q0 -2 0.5 -9.5t0.5 -9.5q0 -38 -14 -85t-34 -89l-277 -573h-79z" />
<glyph unicode="z" horiz-adv-x="460" d="M8 66l338 414h-268l7 66h356l-7 -63l-342 -418h302l-7 -65h-386z" />
<glyph unicode="&#xe1;" d="M142 -13q-29 0 -49.5 12t-34 34t-20 52t-6.5 65q0 67 22 138t63.5 129.5t102 96t137.5 37.5q25 0 53.5 -2.5t45.5 -5.5l-56 -543h-76l11 99q-58 -52 -104.5 -82t-88.5 -30zM161 59q18 0 44.5 14.5t53 34t49.5 39t34 29.5l33 307q-6 2 -16 2h-18q-56 0 -99 -31.5 t-72.5 -80t-45 -106t-15.5 -109.5q0 -42 12.5 -70.5t39.5 -28.5zM270 666l186 135l38 -60l-194 -123z" />
<glyph unicode="&#xe0;" d="M142 -13q-29 0 -49.5 12t-34 34t-20 52t-6.5 65q0 67 22 138t63.5 129.5t102 96t137.5 37.5q25 0 53.5 -2.5t45.5 -5.5l-56 -543h-76l11 99q-58 -52 -104.5 -82t-88.5 -30zM161 59q18 0 44.5 14.5t53 34t49.5 39t34 29.5l33 307q-6 2 -16 2h-18q-56 0 -99 -31.5 t-72.5 -80t-45 -106t-15.5 -109.5q0 -42 12.5 -70.5t39.5 -28.5zM229 734l38 60l177 -129l-31 -50z" />
<glyph unicode="&#xe2;" d="M359 711l-151 -90l-32 50l191 115l160 -115l-36 -50zM142 -13q-29 0 -49.5 12t-34 34t-20 52t-6.5 65q0 67 22 138t63.5 129.5t102 96t137.5 37.5q25 0 53.5 -2.5t45.5 -5.5l-56 -543h-76l11 99q-58 -52 -104.5 -82t-88.5 -30zM161 59q18 0 44.5 14.5t53 34t49.5 39 t34 29.5l33 307q-6 2 -16 2h-18q-56 0 -99 -31.5t-72.5 -80t-45 -106t-15.5 -109.5q0 -42 12.5 -70.5t39.5 -28.5z" />
<glyph unicode="&#xe4;" d="M207 714l62 56l51 -56l-62 -56zM404 714l61 56l51 -56l-63 -56zM142 -13q-29 0 -49.5 12t-34 34t-20 52t-6.5 65q0 67 22 138t63.5 129.5t102 96t137.5 37.5q25 0 53.5 -2.5t45.5 -5.5l-56 -543h-76l11 99q-58 -52 -104.5 -82t-88.5 -30zM161 59q18 0 44.5 14.5t53 34 t49.5 39t34 29.5l33 307q-6 2 -16 2h-18q-56 0 -99 -31.5t-72.5 -80t-45 -106t-15.5 -109.5q0 -42 12.5 -70.5t39.5 -28.5z" />
<glyph unicode="&#xe3;" d="M142 -13q-29 0 -49.5 12t-34 34t-20 52t-6.5 65q0 67 22 138t63.5 129.5t102 96t137.5 37.5q25 0 53.5 -2.5t45.5 -5.5l-56 -543h-76l11 99q-58 -52 -104.5 -82t-88.5 -30zM161 59q18 0 44.5 14.5t53 34t49.5 39t34 29.5l33 307q-6 2 -16 2h-18q-56 0 -99 -31.5 t-72.5 -80t-45 -106t-15.5 -109.5q0 -42 12.5 -70.5t39.5 -28.5zM416 646q-15 0 -31 5.5t-31.5 12.5t-31 12.5t-28.5 5.5q-23 0 -37.5 -5t-32.5 -19l-29 42q4 4 12.5 12t21.5 15.5t30.5 13.5t40.5 6q18 0 34 -5.5t30.5 -12.5t28 -12.5t28.5 -5.5q26 0 44.5 10t28.5 17 l27 -43q-4 -4 -12.5 -12t-22 -16.5t-31 -14.5t-39.5 -6z" />
<glyph unicode="&#xe5;" d="M142 -13q-29 0 -49.5 12t-34 34t-20 52t-6.5 65q0 67 22 138t63.5 129.5t102 96t137.5 37.5q25 0 53.5 -2.5t45.5 -5.5l-56 -543h-76l11 99q-58 -52 -104.5 -82t-88.5 -30zM161 59q18 0 44.5 14.5t53 34t49.5 39t34 29.5l33 307q-6 2 -16 2h-18q-56 0 -99 -31.5 t-72.5 -80t-45 -106t-15.5 -109.5q0 -42 12.5 -70.5t39.5 -28.5zM354 616q-41 0 -71 21.5t-30 61.5q0 26 9.5 47t26 36t38 23t46.5 8q40 0 69.5 -23.5t29.5 -62.5q0 -26 -9 -46.5t-25 -34.5t-37.5 -22t-46.5 -8zM357 657q27 0 45.5 16.5t18.5 44.5q0 24 -15 38t-38 14 q-29 0 -46.5 -17t-17.5 -45q0 -24 15 -37.5t38 -13.5z" />
<glyph unicode="&#x1fb;" d="M142 -13q-29 0 -49.5 12t-34 34t-20 52t-6.5 65q0 67 22 138t63.5 129.5t102 96t137.5 37.5q25 0 53.5 -2.5t45.5 -5.5l-56 -543h-76l11 99q-58 -52 -104.5 -82t-88.5 -30zM161 59q18 0 44.5 14.5t53 34t49.5 39t34 29.5l33 307q-6 2 -16 2h-18q-56 0 -99 -31.5 t-72.5 -80t-45 -106t-15.5 -109.5q0 -42 12.5 -70.5t39.5 -28.5zM235 897l229 80l19 -70l-232 -64zM317 607q-22 0 -41.5 6t-34.5 17.5t-24 28t-9 38.5q0 28 10 50.5t27.5 38.5t41 25t50.5 9q21 0 40.5 -6.5t34.5 -19t23.5 -29.5t8.5 -38q0 -56 -36.5 -88t-90.5 -32z M320 650q30 0 50 18.5t20 49.5q0 26 -16.5 41t-41.5 15q-31 0 -50.5 -18t-19.5 -49q0 -26 16.5 -41.5t41.5 -15.5z" />
<glyph unicode="&#xe7;" horiz-adv-x="449" d="M172 -12q-38 0 -63 18.5t-40 47.5t-21 63.5t-6 66.5q0 77 18 145.5t52 119.5t84 81t114 30q45 0 77 -15.5t51 -33.5l-42 -48q-16 12 -38.5 22.5t-52.5 10.5q-54 0 -89.5 -31t-56 -76t-29 -97t-8.5 -94q0 -69 17 -105t39 -36q38 0 80.5 13t101.5 44l27 -54 q-20 -12 -42.5 -25t-49 -23.5t-57 -17t-66.5 -6.5zM126 -195q34 20 48.5 38.5t17.5 38.5q2 16 -3 32.5t-13 34.5h74q16 -32 13 -66q-3 -33 -28.5 -64.5t-87.5 -57.5z" />
<glyph unicode="&#x107;" horiz-adv-x="450" d="M220 666l186 135l38 -60l-194 -123zM172 -12q-38 0 -63 18.5t-40 47.5t-21 63.5t-6 66.5q0 77 18 145.5t52 119.5t84 81t114 30q45 0 77 -15.5t51 -33.5l-42 -48q-16 12 -38.5 22.5t-52.5 10.5q-54 0 -89.5 -31t-56 -76t-29 -97t-8.5 -94q0 -69 17 -105t39 -36 q38 0 80.5 13t101.5 44l27 -54q-20 -12 -42.5 -25t-49 -23.5t-57 -17t-66.5 -6.5z" />
<glyph unicode="&#x10d;" horiz-adv-x="450" d="M137 732l37 50l132 -93l153 91l29 -48l-190 -116zM172 -12q-38 0 -63 18.5t-40 47.5t-21 63.5t-6 66.5q0 77 18 145.5t52 119.5t84 81t114 30q45 0 77 -15.5t51 -33.5l-42 -48q-16 12 -38.5 22.5t-52.5 10.5q-54 0 -89.5 -31t-56 -76t-29 -97t-8.5 -94q0 -69 17 -105 t39 -36q38 0 80.5 13t101.5 44l27 -54q-20 -12 -42.5 -25t-49 -23.5t-57 -17t-66.5 -6.5z" />
<glyph unicode="&#x111;" horiz-adv-x="513" d="M258 674h140l9 80h76l-9 -80h87l-7 -57h-86l-66 -617h-76l11 99q-51 -51 -99.5 -81.5t-93.5 -30.5q-31 0 -51.5 14.5t-33 39t-17.5 57t-5 67.5q0 85 24.5 156t67.5 122t102.5 79t128.5 28h25l7 67h-141zM163 59q20 0 45 12t49.5 29.5t47.5 37.5t39 37l33 310q-7 1 -18 1 h-25q-46 0 -86.5 -26t-70.5 -68.5t-47 -97t-17 -109.5q0 -39 3.5 -64t10 -38.5t16 -18.5t20.5 -5z" />
<glyph unicode="&#xe9;" horiz-adv-x="468" d="M173 -12q-38 0 -63 17t-39.5 45.5t-20.5 65.5t-6 76q0 73 17 140t50 118t82 81t114 30q36 0 62 -10t42.5 -27.5t24.5 -40t8 -47.5q0 -30 -12 -52.5t-32.5 -40t-46 -30.5t-52.5 -23l-178 -66v-27q0 -69 14 -105t49 -36q42 0 85.5 16.5t85.5 38.5l27 -57q-21 -12 -44 -24 t-49 -21t-55 -15t-63 -6zM289 353q38 15 59.5 36t21.5 44q0 35 -21 49t-45 14q-42 0 -71.5 -18t-50 -47t-33 -66t-19.5 -74zM204 666l186 135l38 -60l-194 -123z" />
<glyph unicode="&#xe8;" horiz-adv-x="468" d="M173 -12q-38 0 -63 17t-39.5 45.5t-20.5 65.5t-6 76q0 73 17 140t50 118t82 81t114 30q36 0 62 -10t42.5 -27.5t24.5 -40t8 -47.5q0 -30 -12 -52.5t-32.5 -40t-46 -30.5t-52.5 -23l-178 -66v-27q0 -69 14 -105t49 -36q42 0 85.5 16.5t85.5 38.5l27 -57q-21 -12 -44 -24 t-49 -21t-55 -15t-63 -6zM289 353q38 15 59.5 36t21.5 44q0 35 -21 49t-45 14q-42 0 -71.5 -18t-50 -47t-33 -66t-19.5 -74zM149 734l38 60l177 -129l-31 -50z" />
<glyph unicode="&#xea;" horiz-adv-x="468" d="M173 -12q-38 0 -63 17t-39.5 45.5t-20.5 65.5t-6 76q0 73 17 140t50 118t82 81t114 30q36 0 62 -10t42.5 -27.5t24.5 -40t8 -47.5q0 -30 -12 -52.5t-32.5 -40t-46 -30.5t-52.5 -23l-178 -66v-27q0 -69 14 -105t49 -36q42 0 85.5 16.5t85.5 38.5l27 -57q-21 -12 -44 -24 t-49 -21t-55 -15t-63 -6zM289 353q38 15 59.5 36t21.5 44q0 35 -21 49t-45 14q-42 0 -71.5 -18t-50 -47t-33 -66t-19.5 -74zM308 711l-151 -90l-32 50l191 115l160 -115l-36 -50z" />
<glyph unicode="&#xeb;" horiz-adv-x="468" d="M173 -12q-38 0 -63 17t-39.5 45.5t-20.5 65.5t-6 76q0 73 17 140t50 118t82 81t114 30q36 0 62 -10t42.5 -27.5t24.5 -40t8 -47.5q0 -30 -12 -52.5t-32.5 -40t-46 -30.5t-52.5 -23l-178 -66v-27q0 -69 14 -105t49 -36q42 0 85.5 16.5t85.5 38.5l27 -57q-21 -12 -44 -24 t-49 -21t-55 -15t-63 -6zM289 353q38 15 59.5 36t21.5 44q0 35 -21 49t-45 14q-42 0 -71.5 -18t-50 -47t-33 -66t-19.5 -74zM155 714l62 56l51 -56l-62 -56zM352 714l61 56l51 -56l-63 -56z" />
<glyph unicode="&#xed;" horiz-adv-x="233" d="M73 666l186 135l38 -60l-194 -123zM104 546h76l-57 -546h-76z" />
<glyph unicode="&#xec;" horiz-adv-x="233" d="M104 546h76l-57 -546h-76zM7 734l38 60l177 -129l-31 -50z" />
<glyph unicode="&#xee;" horiz-adv-x="233" d="M166 711l-151 -90l-32 50l191 115l160 -115l-36 -50zM104 546h76l-57 -546h-76z" />
<glyph unicode="&#xef;" horiz-adv-x="233" d="M5 714l62 56l51 -56l-62 -56zM202 714l61 56l51 -56l-63 -56zM104 546h76l-57 -546h-76z" />
<glyph unicode="&#x140;" horiz-adv-x="299" d="M213 359l73 63l60 -63l-74 -65zM125 754h77l-80 -754h-76z" />
<glyph unicode="&#xf1;" horiz-adv-x="526" d="M380 646q-15 0 -31 5.5t-31.5 12.5t-31 12.5t-28.5 5.5q-23 0 -37.5 -5t-32.5 -19l-29 42q4 4 12.5 12t21.5 15.5t30.5 13.5t40.5 6q18 0 34 -5.5t30.5 -12.5t28 -12.5t28.5 -5.5q26 0 44.5 10t28.5 17l27 -43q-4 -4 -12.5 -12t-22 -16.5t-31 -14.5t-39.5 -6zM104 546h77 l-9 -90l46 38t47 33.5t50 23.5t55 9q54 0 74 -25.5t20 -79.5q0 -27 -3 -61l-43 -394h-76l41 378q2 15 3 28t1 24q0 32 -9.5 45t-34.5 13q-32 0 -73.5 -24t-105.5 -77l-41 -387h-76z" />
<glyph unicode="&#xf3;" horiz-adv-x="515" d="M224 666l186 135l38 -60l-194 -123zM200 -12q-39 0 -68.5 15.5t-50 41.5t-31 61t-10.5 74q0 87 20 157t56 119.5t86 76.5t110 27q40 0 69.5 -16.5t49 -42.5t29 -60t9.5 -68q0 -65 -14 -133t-45.5 -124t-83 -92t-126.5 -36zM219 54q34 0 65.5 22.5t55 63t37.5 96t14 122.5 q0 72 -23.5 105t-78.5 33q-34 0 -65 -23.5t-54 -64t-37 -95.5t-14 -118q0 -24 3.5 -49t14 -45.5t30 -33.5t52.5 -13z" />
<glyph unicode="&#xf2;" horiz-adv-x="515" d="M166 734l38 60l177 -129l-31 -50zM200 -12q-39 0 -68.5 15.5t-50 41.5t-31 61t-10.5 74q0 87 20 157t56 119.5t86 76.5t110 27q40 0 69.5 -16.5t49 -42.5t29 -60t9.5 -68q0 -65 -14 -133t-45.5 -124t-83 -92t-126.5 -36zM219 54q34 0 65.5 22.5t55 63t37.5 96t14 122.5 q0 72 -23.5 105t-78.5 33q-34 0 -65 -23.5t-54 -64t-37 -95.5t-14 -118q0 -24 3.5 -49t14 -45.5t30 -33.5t52.5 -13z" />
<glyph unicode="&#xf4;" horiz-adv-x="515" d="M325 711l-151 -90l-32 50l191 115l160 -115l-36 -50zM200 -12q-39 0 -68.5 15.5t-50 41.5t-31 61t-10.5 74q0 87 20 157t56 119.5t86 76.5t110 27q40 0 69.5 -16.5t49 -42.5t29 -60t9.5 -68q0 -65 -14 -133t-45.5 -124t-83 -92t-126.5 -36zM219 54q34 0 65.5 22.5t55 63 t37.5 96t14 122.5q0 72 -23.5 105t-78.5 33q-34 0 -65 -23.5t-54 -64t-37 -95.5t-14 -118q0 -24 3.5 -49t14 -45.5t30 -33.5t52.5 -13z" />
<glyph unicode="&#xf6;" horiz-adv-x="515" d="M158 714l62 56l51 -56l-62 -56zM355 714l61 56l51 -56l-63 -56zM200 -12q-39 0 -68.5 15.5t-50 41.5t-31 61t-10.5 74q0 87 20 157t56 119.5t86 76.5t110 27q40 0 69.5 -16.5t49 -42.5t29 -60t9.5 -68q0 -65 -14 -133t-45.5 -124t-83 -92t-126.5 -36zM219 54 q34 0 65.5 22.5t55 63t37.5 96t14 122.5q0 72 -23.5 105t-78.5 33q-34 0 -65 -23.5t-54 -64t-37 -95.5t-14 -118q0 -24 3.5 -49t14 -45.5t30 -33.5t52.5 -13z" />
<glyph unicode="&#xf5;" horiz-adv-x="515" d="M200 -12q-39 0 -68.5 15.5t-50 41.5t-31 61t-10.5 74q0 87 20 157t56 119.5t86 76.5t110 27q40 0 69.5 -16.5t49 -42.5t29 -60t9.5 -68q0 -65 -14 -133t-45.5 -124t-83 -92t-126.5 -36zM219 54q34 0 65.5 22.5t55 63t37.5 96t14 122.5q0 72 -23.5 105t-78.5 33 q-34 0 -65 -23.5t-54 -64t-37 -95.5t-14 -118q0 -24 3.5 -49t14 -45.5t30 -33.5t52.5 -13zM375 646q-15 0 -31 5.5t-31.5 12.5t-31 12.5t-28.5 5.5q-23 0 -37.5 -5t-32.5 -19l-29 42q4 4 12.5 12t21.5 15.5t30.5 13.5t40.5 6q18 0 34 -5.5t30.5 -12.5t28 -12.5t28.5 -5.5 q26 0 44.5 10t28.5 17l27 -43q-4 -4 -12.5 -12t-22 -16.5t-31 -14.5t-39.5 -6z" />
<glyph unicode="&#xf8;" horiz-adv-x="546" d="M-1 2l76 90q-8 20 -12 42t-4 46q0 86 19.5 156t55.5 120t86 77t110 27q35 0 62 -13.5t46 -34.5l54 62l36 -31l-62 -73q22 -46 22 -97q0 -65 -14 -133t-45.5 -124t-83 -92t-126.5 -36q-38 0 -68.5 16.5t-50.5 42.5l-65 -75zM390 456q-25 40 -83 40q-32 0 -62 -22t-54 -61 t-38.5 -93.5t-14.5 -119.5q0 -7 0.5 -16t1.5 -17zM237 54q34 0 65.5 22.5t55 62t38 95t14.5 121.5q0 12 -1 25t-2 22l-255 -295q10 -23 30 -38t55 -15z" />
<glyph unicode="&#x1ff;" horiz-adv-x="546" d="M-1 2l76 90q-8 20 -12 42t-4 46q0 86 19.5 156t55.5 120t86 77t110 27q35 0 62 -13.5t46 -34.5l54 62l36 -31l-62 -73q22 -46 22 -97q0 -65 -14 -133t-45.5 -124t-83 -92t-126.5 -36q-38 0 -68.5 16.5t-50.5 42.5l-65 -75zM390 456q-25 40 -83 40q-32 0 -62 -22t-54 -61 t-38.5 -93.5t-14.5 -119.5q0 -7 0.5 -16t1.5 -17zM237 54q34 0 65.5 22.5t55 62t38 95t14.5 121.5q0 12 -1 25t-2 22l-255 -295q10 -23 30 -38t55 -15zM217 666l186 135l38 -60l-194 -123z" />
<glyph unicode="&#x161;" horiz-adv-x="417" d="M92 732l37 50l132 -93l153 91l29 -48l-190 -116zM154 -9q-38 0 -75.5 4.5t-73.5 20.5l22 66q31 -11 64 -18t68 -7q15 0 36 3t40 11.5t32.5 24t13.5 41.5q0 27 -15.5 47.5t-39 39t-51 36t-51 39t-39 47.5t-15.5 61q0 42 14.5 70.5t39.5 46t57.5 25t67.5 7.5q38 0 78 -9 t64 -21l-23 -59q-35 13 -63.5 19.5t-65.5 6.5q-18 0 -35 -3.5t-31 -12.5t-22.5 -23.5t-8.5 -35.5q0 -27 16 -47.5t39.5 -39t51 -36.5t51 -40t39.5 -50t16 -65q0 -43 -19 -71.5t-48 -46t-64.5 -24.5t-69.5 -7z" />
<glyph unicode="&#xdf;" horiz-adv-x="578" d="M106 573q6 56 26 94.5t50 62t67.5 34t79.5 10.5q26 0 55 -8.5t53 -26.5t40 -46.5t16 -67.5q0 -40 -21.5 -72t-47.5 -58l-47.5 -47.5t-21.5 -40.5q0 -22 13.5 -39.5t33.5 -35t43 -36t43 -41t33.5 -51t13.5 -65.5q0 -42 -19 -70.5t-47.5 -46t-62 -25t-62.5 -7.5 q-56 0 -88.5 8.5t-54.5 16.5l19 64q21 -8 54.5 -14.5t65.5 -6.5q24 0 45.5 5.5t38 15t26 22.5t9.5 28q0 30 -13 52.5t-33 42t-43 37t-43 38t-33 45t-13 57.5q0 34 21 60.5t46.5 51t46.5 51.5t21 62q0 18 -8 33t-21 25.5t-30.5 16.5t-36.5 6q-36 0 -61 -9.5t-41 -27 t-24.5 -42.5t-11.5 -56l-83 -792h-75z" />
<glyph unicode="&#xfa;" horiz-adv-x="525" d="M226 666l186 135l38 -60l-194 -123zM159 -11q-57 0 -80.5 26t-23.5 86q0 22 3 48l43 397h76l-42 -378q-3 -32 -3 -53q0 -34 10.5 -47t36.5 -13q24 0 47 9t45 23.5t42.5 33t40.5 37.5l42 388h76l-58 -546h-76l9 90q-43 -43 -87 -72t-101 -29z" />
<glyph unicode="&#xf9;" horiz-adv-x="525" d="M159 -11q-57 0 -80.5 26t-23.5 86q0 22 3 48l43 397h76l-42 -378q-3 -32 -3 -53q0 -34 10.5 -47t36.5 -13q24 0 47 9t45 23.5t42.5 33t40.5 37.5l42 388h76l-58 -546h-76l9 90q-43 -43 -87 -72t-101 -29zM158 733l38 60l177 -129l-31 -50z" />
<glyph unicode="&#xfb;" horiz-adv-x="525" d="M312 711l-151 -90l-32 50l191 115l160 -115l-36 -50zM159 -11q-57 0 -80.5 26t-23.5 86q0 22 3 48l43 397h76l-42 -378q-3 -32 -3 -53q0 -34 10.5 -47t36.5 -13q24 0 47 9t45 23.5t42.5 33t40.5 37.5l42 388h76l-58 -546h-76l9 90q-43 -43 -87 -72t-101 -29z" />
<glyph unicode="&#xfc;" horiz-adv-x="525" d="M149 714l62 56l51 -56l-62 -56zM346 714l61 56l51 -56l-63 -56zM159 -11q-57 0 -80.5 26t-23.5 86q0 22 3 48l43 397h76l-42 -378q-3 -32 -3 -53q0 -34 10.5 -47t36.5 -13q24 0 47 9t45 23.5t42.5 33t40.5 37.5l42 388h76l-58 -546h-76l9 90q-43 -43 -87 -72t-101 -29z " />
<glyph unicode="&#xff;" horiz-adv-x="477" d="M123 714l62 56l51 -56l-62 -56zM320 714l61 56l51 -56l-63 -56zM173 0h-41l-85 546h82l70 -492q1 1 7.5 15.5t17 36t23.5 49t27 56.5q32 67 72 150q20 41 32.5 87.5t12.5 78.5q0 5 -0.5 9.5t-0.5 9.5h79q0 -2 0.5 -9.5t0.5 -9.5q0 -38 -14 -85t-34 -89l-277 -573h-79z " />
<glyph unicode="&#xfd;" horiz-adv-x="477" d="M173 0h-41l-85 546h82l70 -492q1 1 7.5 15.5t17 36t23.5 49t27 56.5q32 67 72 150q20 41 32.5 87.5t12.5 78.5q0 5 -0.5 9.5t-0.5 9.5h79q0 -2 0.5 -9.5t0.5 -9.5q0 -38 -14 -85t-34 -89l-277 -573h-79zM206 666l186 135l38 -60l-194 -123z" />
<glyph unicode="&#x17e;" horiz-adv-x="460" d="M108 732l37 50l132 -93l153 91l29 -48l-190 -116zM8 66l338 414h-268l7 66h356l-7 -63l-342 -418h302l-7 -65h-386z" />
<glyph unicode="&#xfe;" horiz-adv-x="532" d="M127 753h76l-30 -276q18 12 40 25.5t45.5 24t47.5 17.5t46 7q63 0 98.5 -36.5t35.5 -124.5q0 -73 -17.5 -144t-53.5 -127.5t-92 -91.5t-133 -35q-20 0 -37 2t-32 4l-24 -218h-76zM197 57q60 0 100.5 34.5t65 85.5t35 108.5t10.5 103.5q0 56 -18 76.5t-46 20.5 q-20 0 -44 -8.5t-48.5 -21t-47 -27t-38.5 -25.5l-38 -337q11 -2 19 -3.5t15.5 -3t15.5 -2.5t19 -1z" />
<glyph unicode="&#xf0;" horiz-adv-x="523" d="M200 -12q-39 0 -68.5 16t-50 43t-31 61.5t-10.5 71.5q0 86 19.5 155.5t54.5 118.5t84 76t108 28q29 0 53 -11q-14 40 -33 78l-97 -34l-18 48l86 29q-23 30 -47 50l49 51q36 -26 67 -68l98 34l19 -47l-88 -31q36 -65 55.5 -141t19.5 -157q0 -57 -14 -122t-45.5 -120.5 t-83.5 -92t-127 -36.5zM224 54q37 0 68 24.5t53.5 66.5t34.5 97t12 116q0 69 -25 103.5t-82 34.5q-35 0 -65 -26t-52.5 -68t-35 -96t-12.5 -111q0 -23 4 -48t15 -45.5t31.5 -34t53.5 -13.5z" />
<glyph unicode="&#xe6;" horiz-adv-x="767" d="M144 -13q-29 0 -49.5 13.5t-33.5 37.5t-19 56.5t-6 70.5q0 83 24.5 154t68 122.5t102.5 80.5t128 29q25 0 50.5 -2.5t42.5 -5.5l-7 -62q30 37 70 58.5t92 21.5q39 0 65 -10t41.5 -27t22.5 -39.5t7 -47.5q0 -30 -12 -52.5t-32.5 -40t-46 -30.5t-52.5 -23l-177 -66 q0 -7 -0.5 -14t-0.5 -13q0 -69 15 -105.5t50 -36.5q41 0 84.5 17.5t85.5 37.5l27 -57q-21 -12 -44 -24t-48.5 -21t-55 -15t-63.5 -6q-29 0 -49.5 9.5t-35 26.5t-23 39.5t-12.5 49.5q-58 -57 -110 -91.5t-99 -34.5zM163 59q18 0 44.5 14.5t52.5 34t48.5 39t33.5 29.5l33 307 l-41 2q-46 1 -86 -24.5t-70 -68t-47.5 -97t-17.5 -110.5q0 -39 3.5 -64t10 -38.5t16 -18.5t20.5 -5zM588 354q38 16 59.5 36.5t21.5 43.5q0 35 -20.5 48.5t-44.5 13.5q-42 0 -72 -18t-50.5 -47t-32.5 -65.5t-18 -73.5z" />
<glyph unicode="&#x1fd;" horiz-adv-x="767" d="M144 -13q-29 0 -49.5 13.5t-33.5 37.5t-19 56.5t-6 70.5q0 83 24.5 154t68 122.5t102.5 80.5t128 29q25 0 50.5 -2.5t42.5 -5.5l-7 -62q30 37 70 58.5t92 21.5q39 0 65 -10t41.5 -27t22.5 -39.5t7 -47.5q0 -30 -12 -52.5t-32.5 -40t-46 -30.5t-52.5 -23l-177 -66 q0 -7 -0.5 -14t-0.5 -13q0 -69 15 -105.5t50 -36.5q41 0 84.5 17.5t85.5 37.5l27 -57q-21 -12 -44 -24t-48.5 -21t-55 -15t-63.5 -6q-29 0 -49.5 9.5t-35 26.5t-23 39.5t-12.5 49.5q-58 -57 -110 -91.5t-99 -34.5zM163 59q18 0 44.5 14.5t52.5 34t48.5 39t33.5 29.5l33 307 l-41 2q-46 1 -86 -24.5t-70 -68t-47.5 -97t-17.5 -110.5q0 -39 3.5 -64t10 -38.5t16 -18.5t20.5 -5zM588 354q38 16 59.5 36.5t21.5 43.5q0 35 -20.5 48.5t-44.5 13.5q-42 0 -72 -18t-50.5 -47t-32.5 -65.5t-18 -73.5zM380 666l186 135l38 -60l-194 -123z" />
<glyph unicode="&#x153;" horiz-adv-x="801" d="M200 -12q-39 0 -68.5 15.5t-50 41.5t-31 61t-10.5 74q0 87 20 157t56 119.5t86 76.5t110 27q55 0 89 -31t50 -74q33 49 80 77.5t110 28.5q36 0 62 -10t42.5 -27t24 -39.5t7.5 -47.5q0 -30 -12 -52.5t-32.5 -40t-46 -30.5t-52.5 -23l-177 -66q-1 -6 -1 -13.5v-13.5 q0 -69 14.5 -105.5t49.5 -36.5q41 0 85 16.5t86 38.5l27 -57q-22 -12 -45 -24t-48.5 -21t-54.5 -15t-63 -6q-49 0 -76 30t-38 77q-32 -48 -79.5 -77.5t-113.5 -29.5zM219 54q34 0 65.5 22.5t55 63t37.5 96t14 122.5q0 72 -23.5 105t-78.5 33q-32 0 -62.5 -22.5t-54.5 -62.5 t-38.5 -95.5t-14.5 -120.5q0 -24 3.5 -49t14 -45.5t30 -33.5t52.5 -13zM622 354q38 16 59.5 36.5t21.5 43.5q0 35 -20.5 48.5t-44.5 13.5q-42 0 -72 -18t-50.5 -47t-33 -65.5t-18.5 -73.5z" />
<glyph unicode="&#x133;" horiz-adv-x="480" d="M171 -220q-23 0 -44 4.5t-31 8.5l19 65q10 -3 27.5 -7t37.5 -4q31 0 51 9.5t32.5 27.5t18.5 43t9 56l60 563h76l-60 -564q-6 -59 -23 -98t-42.5 -62t-59 -32.5t-71.5 -9.5zM104 546h76l-57 -546h-76zM97 715l72 63l59 -63l-73 -63zM343 715l72 63l59 -63l-73 -63z" />
<glyph unicode="," horiz-adv-x="221" d="M-11 -144q14 32 22.5 55.5t14.5 48.5t10.5 56.5t9.5 79.5h89q-4 -38 -8.5 -67t-12.5 -56t-22 -54.5t-36 -62.5h-67v0z" />
<glyph unicode="." horiz-adv-x="219" d="M43 87h90l-9 -87h-90z" />
<glyph unicode=":" horiz-adv-x="285" d="M75 87h90l-9 -87h-91zM123 546h90l-10 -87h-90z" />
<glyph unicode=";" horiz-adv-x="282" d="M19 -144q14 32 22.5 55.5t14.5 48.5t10 56.5t9 79.5h89q-4 -38 -8.5 -67t-12.5 -56t-22 -54.5t-36 -62.5h-66zM121 546h89l-9 -87h-90z" />
<glyph unicode="?" horiz-adv-x="354" d="M75 163q-6 24 -6 50q0 39 13.5 69.5t33.5 55.5t44 46t44 42t33.5 42.5t13.5 48.5q0 31 -16 54t-40.5 38t-53.5 23t-56 11l23 66q39 -3 78.5 -14.5t72 -33.5t52.5 -55t20 -78q0 -39 -13 -68.5t-33 -53.5t-43.5 -44t-44.5 -40t-36.5 -42.5t-18.5 -50.5q-2 -14 -1 -28.5 t2 -28.5zM60 85h87l-9 -85h-86z" />
<glyph unicode="&#xbf;" horiz-adv-x="352" d="M259 -3q-39 3 -79 14.5t-72.5 33t-52.5 54.5t-20 79q0 39 13 68.5t33 53t43.5 43.5t44.5 40t36 42.5t19 51.5q2 14 1.5 28.5t-2.5 28.5l69 9q6 -24 6 -50q0 -39 -13.5 -69.5t-34 -55.5t-44 -46t-44 -42t-34 -43t-13.5 -49q0 -32 16 -54.5t40.5 -37.5t54 -23t55.5 -11z M228 706h87l-8 -85h-87z" />
<glyph unicode="!" horiz-adv-x="275" d="M101 308l42 399h75l-43 -399l-18 -138h-67zM71 85h87l-9 -85h-87z" />
<glyph unicode="&#xa1;" horiz-adv-x="269" d="M107 399l18 138h67l-10 -138l-43 -399h-74zM133 707h87l-9 -85h-86z" />
<glyph unicode="-" horiz-adv-x="474" d="M95 384h298l-8 -68h-298z" />
<glyph unicode="&#x2013;" horiz-adv-x="615" d="M94 383h440l-6 -66h-440z" />
<glyph unicode="&#x2014;" horiz-adv-x="873" d="M94 383h698l-6 -66h-698z" />
<glyph unicode="_" horiz-adv-x="562" d="M-11 -97h500l-7 -68h-499z" />
<glyph unicode="@" horiz-adv-x="775" d="M323 -72q-132 0 -204 70.5t-72 203.5q0 106 31 199.5t89.5 163t144 110t195.5 40.5q115 0 176.5 -58t61.5 -175q0 -56 -15 -115.5t-45.5 -108t-78 -79.5t-113.5 -31q-33 0 -53 16t-15 50q-10 -10 -24.5 -20.5t-31 -19.5t-33.5 -14.5t-31 -5.5q-47 0 -65.5 24.5 t-18.5 69.5q0 49 14.5 94.5t42.5 80.5t69 56t94 21q24 0 51.5 -5.5t50.5 -16.5l-50 -223q-2 -6 -3 -13t-1 -12q0 -9 3 -16t13 -7q49 0 81.5 27t52 67.5t28 87.5t8.5 86q0 181 -177 181q-96 0 -167 -36.5t-118.5 -98t-71 -142.5t-23.5 -169q0 -112 55.5 -164.5t166.5 -52.5 q38 0 76.5 5t75.5 14l7 -59q-43 -16 -86.5 -20.5t-89.5 -4.5zM324 215q13 0 28 5t29.5 13.5t27.5 18.5t22 19l38 169q-20 5 -35 5q-38 0 -65.5 -16.5t-45 -43t-26 -60t-8.5 -66.5q0 -20 6 -32t29 -12z" />
<glyph unicode="&#x26;" horiz-adv-x="665" d="M690 -98q-83 0 -161 39t-144 103q-32 -23 -75 -38t-100 -15q-36 0 -68.5 8.5t-56.5 27.5t-38 48.5t-14 70.5q0 37 12 69t32.5 60t46.5 52t55 46q-11 37 -16.5 74t-5.5 69q0 42 10.5 78.5t33 63t57 41.5t81.5 15q63 0 100.5 -33.5t37.5 -96.5q0 -38 -19.5 -69t-51 -58.5 t-70 -52.5t-75.5 -50q28 -75 73.5 -145t104 -124t128 -86.5t146.5 -32.5h12t13 1l3 -61q-13 -2 -26 -3t-25 -1zM219 57q39 0 69 8.5t54 22.5q-45 51 -80.5 108t-59.5 116q-41 -33 -66.5 -71.5t-25.5 -87.5q0 -53 31 -74.5t78 -21.5zM241 413q31 21 60.5 41t52 40.5t36 40.5 t13.5 41q0 31 -19 53.5t-53 22.5q-31 0 -51 -11t-31.5 -29t-16 -42t-4.5 -50q0 -23 3.5 -52t9.5 -55zM455 168q17 13 39 18.5t51 5.5h84l-8 -65h-82q-31 0 -50.5 -5.5t-39.5 -17.5z" />
<glyph unicode="/" horiz-adv-x="363" d="M311 769h70l-319 -831h-70z" />
<glyph unicode="\" horiz-adv-x="365" d="M80 769h70l146 -831h-71z" />
<glyph unicode="|" horiz-adv-x="233" d="M127 754h73l-102 -974h-74z" />
<glyph unicode="(" horiz-adv-x="337" d="M217 -153q-43 35 -75 85.5t-53 108t-31.5 116.5t-10.5 112q0 74 17.5 157t52.5 161t86 144t119 107l40 -51q-57 -38 -101 -96.5t-74 -127.5t-45 -142.5t-15 -140.5q0 -47 8.5 -100t26 -105t44 -98t62.5 -78l-51 -52v0z" />
<glyph unicode=")" horiz-adv-x="336" d="M-20 -101q55 42 99.5 104t75 133t47 147t16.5 145q0 44 -8.5 95t-26 100t-45 92t-64.5 72l51 51q44 -30 76.5 -77t54.5 -102.5t32.5 -115t10.5 -115.5q0 -77 -19 -160.5t-55 -161.5t-87.5 -146t-117.5 -113z" />
<glyph unicode="[" horiz-adv-x="295" d="M134 839h176l-6 -64h-100l-89 -846h100l-7 -64h-177z" />
<glyph unicode="]" horiz-adv-x="292" d="M-3 -71h100l89 846h-100l7 64h177l-103 -974h-176z" />
<glyph unicode="{" horiz-adv-x="344" d="M234 -140q-34 0 -65.5 4.5t-56 17t-39 35t-14.5 59.5q0 22 6 49l42 199q3 15 -0.5 32t-13 30.5t-24.5 22.5t-34 9l7 70q19 0 36 8.5t29.5 22t20 30.5t7.5 34v206q0 49 16.5 80.5t44.5 50t64.5 26t77.5 7.5h20l-7 -64h-23q-60 0 -89.5 -24t-29.5 -81l1 -182 q0 -64 -27.5 -99.5t-72.5 -46.5v-2q33 -12 53.5 -36.5t20.5 -66.5q0 -18 -5 -43l-40 -184q-3 -15 -3 -28q0 -38 26.5 -55t74.5 -17h24l-7 -64h-20v0z" />
<glyph unicode="}" horiz-adv-x="342" d="M1 -76h23q57 0 88 24t31 76l-1 184q0 63 28 96.5t72 49.5v2q-35 9 -54.5 34t-19.5 67q0 10 1 21t4 24l40 182q3 18 3 33q0 38 -25.5 54.5t-75.5 16.5h-24l8 65h20q35 0 66.5 -5.5t55.5 -19t38 -36.5t14 -58q0 -11 -1.5 -22t-3.5 -23l-43 -206q-4 -17 -0.5 -34t13.5 -30.5 t25 -22t34 -8.5l-7 -70q-20 0 -36.5 -9t-29.5 -22.5t-20 -30.5t-7 -32l1 -199q0 -53 -17 -85.5t-45.5 -50t-65.5 -23.5t-76 -6h-20z" />
<glyph unicode="&#xa7;" horiz-adv-x="438" d="M69 -216q-62 0 -111 39l32 64q17 -13 41 -25t45 -12q19 0 30.5 12t18 29t8.5 36.5t2 33.5q0 23 -2 47t-5 48l-40 353q-2 17 -3 34.5t-1 34.5q0 61 16.5 113t48.5 89t80.5 58t113.5 21q39 0 75 -10.5t67 -33.5l-33 -59q-25 16 -56 27.5t-60 11.5q-20 0 -31 -10.5t-16 -26 t-6.5 -33t-1.5 -31.5q0 -22 3 -44l46 -367q4 -28 6 -56.5t2 -56.5q0 -61 -18.5 -113t-53.5 -90.5t-84.5 -60.5t-112.5 -22zM178 -138q24 15 41 36t27.5 46t15 52t4.5 54q0 18 -1.5 36t-3.5 37l-46 384q-3 33 -3 63q0 27 3.5 57t17.5 53l-2 2q-23 -14 -37.5 -34.5t-23 -45 t-12 -50.5t-3.5 -51q0 -30 3 -60l46 -384q2 -18 3 -36.5t1 -38.5q0 -35 -5.5 -61.5t-25.5 -56.5z" />
<glyph unicode="&#x2022;" horiz-adv-x="388" d="M199 208q-30 0 -57 11t-46.5 30.5t-31 46t-11.5 56.5t11.5 56.5t31 46t46 31t56.5 11.5t56.5 -11.5t46 -31t31 -46t11.5 -56.5t-11.5 -56.5t-31 -46t-45.5 -30.5t-56 -11z" />
<glyph unicode="#" horiz-adv-x="617" d="M125 160h-88l8 67h91l41 253h-106l7 66h109l26 161h72l-25 -161h168l26 161h73l-27 -161h89l-7 -66h-92l-40 -253h106l-8 -67h-110l-25 -160h-72l25 160h-169l-26 -160h-72zM377 227l40 253h-168l-40 -253h168z" />
<glyph unicode="%" horiz-adv-x="782" d="M205 388q-63 0 -99 33t-36 98q0 38 11.5 73t34 62t54 43.5t72.5 16.5q66 0 101.5 -32t35.5 -99q0 -39 -11.5 -74.5t-34 -62t-55 -42.5t-73.5 -16zM211 445q27 0 46.5 11.5t32 29.5t18.5 41t6 47q0 38 -18 62t-59 24q-27 0 -46 -13t-31 -33t-17.5 -44t-5.5 -47 q0 -37 17.5 -57.5t56.5 -20.5zM548 -9q-63 0 -99 33t-36 98q0 38 11.5 73.5t34 62.5t54.5 43t73 16q65 0 101 -32t36 -99q0 -39 -11.5 -74.5t-34 -62t-55 -42.5t-74.5 -16zM554 48q27 0 46.5 11.5t32 29.5t18.5 41t6 47q0 38 -18 62t-59 24q-27 0 -46 -12.5t-31 -32.5 t-17.5 -44t-5.5 -47q0 -38 18 -58.5t56 -20.5zM73 103l587 531l38 -42l-586 -531z" />
<glyph unicode="&#x2030;" horiz-adv-x="1136" d="M205 388q-63 0 -99.5 33t-36.5 98q0 38 11.5 73t34 62t54 43.5t72.5 16.5q66 0 101.5 -32t35.5 -100q0 -39 -11.5 -74t-34 -61.5t-54.5 -42.5t-73 -16zM210 445q27 0 46.5 11.5t32 29.5t18.5 41t6 47q0 38 -18 62t-59 24q-27 0 -46 -13t-31 -33t-17.5 -44t-5.5 -47 q0 -37 17.5 -57.5t56.5 -20.5zM544 -9q-63 0 -99 33t-36 98q0 38 11.5 73.5t34 62.5t54 43t72.5 16q65 0 101.5 -32t36.5 -99q0 -39 -11.5 -74.5t-34 -62t-55 -42.5t-74.5 -16zM550 48q27 0 46.5 11.5t31.5 29.5t18 41t6 47q0 38 -17.5 62t-59.5 24q-27 0 -45.5 -12.5 t-30.5 -32.5t-17.5 -44t-5.5 -47q0 -38 17.5 -58.5t56.5 -20.5zM903 -9q-63 0 -99 33t-36 98q0 38 11.5 73.5t34 62.5t54 43t72.5 16q66 0 102 -32t36 -99q0 -39 -11.5 -74.5t-34 -62t-55 -42.5t-74.5 -16zM909 48q27 0 46.5 11.5t32 29.5t18.5 41t6 47q0 38 -18 62t-59 24 q-27 0 -46 -12.5t-31 -32.5t-17.5 -44t-5.5 -47q0 -38 17.5 -58.5t56.5 -20.5zM71 103l588 532l36 -43l-588 -533z" />
<glyph unicode="&#x2020;" horiz-adv-x="469" d="M224 517l-169 -7l8 72l167 -7l11 179h80l-25 -179l168 7l-7 -72l-166 7l-49 -517h-79z" />
<glyph unicode="'" horiz-adv-x="172" d="M102 764h69l-31 -204h-58z" />
<glyph unicode="&#x22;" horiz-adv-x="323" d="M102 764h69l-32 -204h-57zM253 763h69l-31 -203h-58z" />
<glyph unicode="&#x201c;" horiz-adv-x="344" d="M79 556q1 37 7 67t15 55t20.5 45.5t24.5 39.5h59q-24 -53 -34 -109t-13 -98h-79zM232 556q4 75 23 122t45 85h59q-25 -53 -35 -109t-12 -98h-80z" />
<glyph unicode="&#x201d;" horiz-adv-x="341" d="M71 556q24 54 34 110t13 97h80q-2 -37 -8 -66.5t-15 -54.5t-20.5 -46t-24.5 -40h-59zM225 556q24 54 33.5 110t12.5 97h80q-2 -37 -8 -66.5t-15 -54.5t-20.5 -46t-24.5 -40h-58z" />
<glyph unicode="&#x2018;" horiz-adv-x="191" d="M79 556q4 75 22.5 122t44.5 85h59q-24 -53 -33.5 -109t-13.5 -98h-79v0z" />
<glyph unicode="&#x2019;" horiz-adv-x="188" d="M71 556q24 54 34 110t13 97h79q-2 -37 -7.5 -66.5t-14.5 -54.5t-20.5 -46t-24.5 -40h-59v0z" />
<glyph unicode="&#x201a;" horiz-adv-x="208" d="M-4 -121q24 53 34 109t13 97h79q-2 -37 -7.5 -66.5t-14.5 -54.5t-20.5 -45.5t-24.5 -39.5h-59v0z" />
<glyph unicode="&#x201e;" horiz-adv-x="361" d="M-4 -121q25 53 34.5 109t12.5 97h79q-2 -37 -8 -66.5t-15 -54.5t-20 -45.5t-24 -39.5h-59zM150 -121q24 53 34 109t13 97h78q-2 -37 -7.5 -66.5t-14.5 -54.5t-20.5 -45.5t-24.5 -39.5h-58z" />
<glyph unicode="&#x203a;" horiz-adv-x="256" d="M36 149l106 195l-65 198l58 22l82 -220l-129 -220z" />
<glyph unicode="&#x2039;" horiz-adv-x="256" d="M47 344l129 220l54 -22l-108 -198l65 -195l-57 -25z" />
<glyph unicode="&#xab;" horiz-adv-x="432" d="M47 344l129 220l54 -22l-108 -198l66 -195l-58 -25zM222 344l130 220l53 -22l-108 -198l66 -195l-58 -25z" />
<glyph unicode="&#xbb;" horiz-adv-x="431" d="M36 149l106 195l-66 198l59 22l82 -220l-129 -220zM211 149l106 195l-66 198l59 22l82 -220l-129 -220z" />
<glyph unicode="*" horiz-adv-x="427" d="M66 526l105 44l17 -38l-94 -66zM78 643l41 60l82 -65l-27 -40zM213 517h46l-1 -109h-69zM227 762h69l-23 -110h-45zM284 530l28 40l95 -43l-41 -61zM296 638l95 65l28 -59l-105 -44z" />
<glyph unicode="&#xb7;" horiz-adv-x="238" d="M58 359l73 63l60 -63l-74 -65z" />
<glyph unicode="+" horiz-adv-x="575" d="M244 270h-215l8 66l214 -1l23 222h69l-25 -223l228 2l-8 -66h-227l-22 -216h-68z" />
<glyph unicode="&#x3c;" horiz-adv-x="503" d="M38 254l10 99l424 192l-8 -74l-370 -168l335 -164l-7 -75z" />
<glyph unicode="=" horiz-adv-x="697" d="M94 232h494l-7 -66h-494zM116 442h494l-7 -66h-494z" />
<glyph unicode="&#x3e;" horiz-adv-x="502" d="M38 139l369 164l-334 168l8 74l383 -192l-10 -99l-424 -190z" />
<glyph unicode="&#x401;" horiz-adv-x="567" d="M193 808l62 56l50 -56l-62 -59zM399 808l61 56l51 -56l-63 -59zM142 707h393l-7 -65h-314l-26 -254h291l-6 -66h-292l-27 -257h337l-7 -65h-417z" />
<glyph unicode="&#x402;" horiz-adv-x="731" d="M350 -164q7 6 28.5 22t49.5 41.5t58 59.5t55 76.5t41.5 92t16.5 106.5q0 68 -33 100.5t-94 32.5q-19 0 -42 -3.5t-47 -9.5t-48 -14.5t-45 -19.5l-34 -320h-79l67 640h-205l8 67h536l-7 -67h-253l-25 -249q47 17 97 29.5t104 12.5q49 0 83.5 -14.5t56.5 -40.5t32 -62 t10 -78q0 -77 -26 -145t-67 -125.5t-93 -104.5t-104 -83z" />
<glyph unicode="&#x406;" horiz-adv-x="278" d="M142 707h79l-74 -707h-80z" />
<glyph unicode="&#x408;" horiz-adv-x="279" d="M-89 -128q47 25 78 52t50.5 60t29.5 73.5t16 93.5l58 556h79l-58 -554q-6 -60 -19.5 -111t-39.5 -93.5t-66.5 -76.5t-100.5 -59z" />
<glyph unicode="&#x409;" horiz-adv-x="962" d="M-30 51q41 18 77 47.5t56 61.5q30 49 63.5 187t66.5 360h369l-67 -642q1 0 19.5 -0.5t40.5 -0.5h40.5h19.5q81 0 129 39t54 116q4 41 -7 69t-33.5 44.5t-54.5 23.5t-70 7h-43l7 67h48q112 0 175.5 -46.5t63.5 -142.5q0 -5 -0.5 -11.5t-1.5 -12.5q-4 -53 -25.5 -93.5 t-56.5 -68t-81 -41.5t-100 -14h-210l66 641h-215q-18 -94 -33.5 -174t-30.5 -146t-31.5 -117.5t-38.5 -87.5q-29 -48 -68 -81t-96 -57z" />
<glyph unicode="&#x40a;" horiz-adv-x="987" d="M142 707h79l-31 -298h334l31 298h80l-67 -642q1 0 19 -0.5t40 -0.5h40.5h19.5q77 0 122.5 36t51.5 108l1 18q0 34 -12 56t-33 35.5t-50.5 19t-63.5 5.5h-40l6 67h45q110 0 172 -44t62 -135q0 -5 -0.5 -11.5t-1.5 -11.5q-4 -50 -24.5 -89t-54.5 -65t-78.5 -39.5 t-96.5 -13.5h-211l37 343h-335l-36 -343h-80z" />
<glyph unicode="&#x40b;" horiz-adv-x="742" d="M244 640h-205l8 67h536l-7 -67h-253l-24 -249q47 19 101.5 31t102.5 12q54 0 90 -12.5t57 -34t30 -50.5t9 -61q0 -8 -0.5 -17t-1.5 -18l-26 -241h-79l26 246q1 5 1 10v9q0 36 -15 56.5t-36.5 31t-46.5 13t-46 2.5q-32 0 -80 -12t-94 -36l-35 -320h-79z" />
<glyph unicode="&#x40e;" horiz-adv-x="557" d="M98 62q23 7 43.5 16.5t39.5 23.5t36 34.5t33 51.5l18 32h-38l-189 487h88l167 -434l213 434h88l-275 -527q-27 -51 -49.5 -82.5t-45.5 -51t-48.5 -31.5t-56.5 -24zM319 755q-55 0 -96 22.5t-66 61.5l48 43q13 -18 28.5 -29.5t32 -18t32 -8.5t28.5 -2q24 0 60 10.5 t71 47.5l41 -43q-34 -41 -79.5 -62.5t-99.5 -21.5z" />
<glyph unicode="&#x40f;" horiz-adv-x="722" d="M292 0h-224l74 707h80l-66 -641h362l66 641h80l-73 -707h-222l-15 -153h-78z" />
<glyph unicode="&#x410;" horiz-adv-x="636" d="M318 707h118l148 -707h-82l-53 266h-270l-131 -266h-82zM435 330l-53 276l-11 60l-27 -61l-134 -275h225z" />
<glyph unicode="&#x411;" horiz-adv-x="607" d="M141 707h416l-6 -67h-337l-59 -575q1 0 20.5 -0.5t42.5 -0.5h42.5h20.5q81 0 130.5 38.5t55.5 114.5q3 41 -8.5 68.5t-34 44t-55 23t-70.5 6.5h-51l7 66h56q112 0 176.5 -44.5t64.5 -139.5q0 -21 -3 -40q-7 -48 -29.5 -85.5t-57 -63t-79.5 -39t-97 -13.5h-218z" />
<glyph unicode="&#x412;" horiz-adv-x="614" d="M142 707h192q39 0 75 -7t64.5 -25t45.5 -48.5t17 -76.5q0 -28 -7.5 -55.5t-22.5 -50.5t-37 -40.5t-50 -25.5v-3q59 -8 95 -49.5t36 -100.5t-19.5 -101.5t-54 -70t-82.5 -40.5t-104 -13h-223zM278 66q40 0 75 6t60.5 22.5t40 46.5t14.5 77q0 43 -19.5 66t-49 34t-65 13 t-66.5 2h-86l-27 -267h123zM289 396q38 0 68 7.5t51 24.5t32 45t11 69q0 34 -12 54.5t-32.5 31t-46.5 14t-54 3.5h-91l-26 -249h100z" />
<glyph unicode="&#x413;" horiz-adv-x="508" d="M142 707h404l-6 -67h-326l-67 -640h-80z" />
<glyph unicode="&#x414;" horiz-adv-x="700" d="M-18 66h59q16 25 31 51t28 51.5t24 48t19 40.5q7 15 19.5 55t27.5 99t30.5 134.5t29.5 161.5h364l-67 -641h90l-22 -219h-78l15 153h-501l-15 -153h-77zM467 66l59 574h-212q-15 -83 -30 -149.5t-28 -116t-22.5 -80.5t-13.5 -43q-8 -22 -17 -42.5t-19.5 -42.5 t-23.5 -46.5t-29 -53.5h336z" />
<glyph unicode="&#x415;" horiz-adv-x="567" d="M142 707h393l-7 -65h-314l-26 -254h291l-6 -66h-292l-27 -257h337l-7 -65h-417z" />
<glyph unicode="&#x416;" horiz-adv-x="876" d="M-14 19l306 365l-215 323h90l211 -328l-2 -16l-317 -387zM506 363l2 15l280 329h100l-294 -329l234 -359l-73 -43zM438 707h79l-73 -707h-80z" />
<glyph unicode="&#x417;" horiz-adv-x="532" d="M200 -9q-73 0 -120 14.5t-75 29.5l32 65q32 -17 74 -28t93 -11q34 0 65 7t55 23.5t40 42t19 63.5q3 35 -8 59t-34 39t-55 21.5t-71 6.5h-69l8 66h69q69 0 114 34.5t51 98.5q5 61 -28 92.5t-97 31.5q-47 0 -83 -10.5t-65 -21.5l-20 58q34 15 78.5 27.5t104.5 12.5 q51 0 88.5 -13.5t61.5 -36.5t34.5 -55t7.5 -69q-4 -43 -19.5 -74t-35 -52t-39.5 -33.5t-32 -17.5v-2q12 -3 34 -11.5t42.5 -26t34.5 -47t10 -75.5q-3 -37 -19 -74t-47.5 -67t-80.5 -48.5t-118 -18.5z" />
<glyph unicode="&#x418;" horiz-adv-x="757" d="M142 707h79l-51 -489l-14 -106l71 105l393 490h79l-74 -707h-80l51 489l14 106l-48 -70l-415 -525h-80z" />
<glyph unicode="&#x419;" horiz-adv-x="757" d="M429 755q-55 0 -96 22.5t-66 61.5l48 43q13 -18 28.5 -29.5t32 -18t32 -8.5t28.5 -2q24 0 60 10.5t71 47.5l41 -43q-34 -41 -79.5 -62.5t-99.5 -21.5zM142 707h79l-51 -489l-14 -106l71 105l393 490h79l-74 -707h-80l51 489l14 106l-48 -70l-415 -525h-80z" />
<glyph unicode="&#x41a;" horiz-adv-x="602" d="M210 367l1 16l308 324h100l-318 -327l252 -359l-73 -40zM142 707h79l-74 -707h-80z" />
<glyph unicode="&#x41b;" horiz-adv-x="660" d="M-30 51q41 18 77 47.5t56 61.5q30 49 63.5 187t66.5 360h369l-73 -707h-80l66 641h-215q-18 -94 -33.5 -174t-30.5 -146t-31.5 -117.5t-38.5 -87.5q-29 -48 -68 -81t-96 -57z" />
<glyph unicode="&#x41c;" horiz-adv-x="889" d="M237 707h107l53 -661l296 661h106l-20 -707h-78l24 610l-273 -610h-126l-49 612l-192 -612h-79z" />
<glyph unicode="&#x41d;" horiz-adv-x="738" d="M142 707h79l-33 -320h380l33 320h80l-74 -707h-80l35 322h-381l-34 -322h-80z" />
<glyph unicode="&#x41e;" horiz-adv-x="801" d="M359 -11q-73 0 -128.5 22.5t-93.5 64.5t-57.5 100.5t-19.5 130.5q0 90 26.5 165.5t76.5 130t122.5 85t164.5 30.5q73 0 129 -22.5t94 -64t58 -100.5t20 -131q0 -91 -26.5 -166.5t-77 -130t-123 -84.5t-165.5 -30zM369 55q75 0 131 27t93.5 73.5t56 108.5t18.5 133 q0 56 -14.5 102.5t-43 80t-71.5 52t-101 18.5q-73 0 -128.5 -26.5t-93 -72.5t-56.5 -107.5t-19 -131.5q0 -56 14 -103t42 -81t71 -53.5t101 -19.5z" />
<glyph unicode="&#x41f;" horiz-adv-x="728" d="M142 708h529l-74 -708h-80l68 640h-371l-67 -640h-80z" />
<glyph unicode="&#x420;" horiz-adv-x="592" d="M142 707h229q46 0 84 -11.5t65.5 -35.5t42.5 -59.5t15 -83.5q0 -69 -25 -118t-67 -80t-97.5 -45t-117.5 -14h-20l7 66h22.5t20.5 1q42 3 77 13.5t60.5 32t40 55t14.5 82.5q0 37 -11 62t-31 41t-47.5 23t-60.5 7h-128l-67 -643h-81z" />
<glyph unicode="&#x421;" horiz-adv-x="630" d="M378 -10q-73 0 -132 22t-100.5 63.5t-64 100.5t-22.5 134q0 91 26.5 165t77 127t123.5 82t165 29q51 0 89.5 -6t74.5 -22l-27 -63q-19 7 -35 11.5t-32.5 7t-34.5 3.5t-41 1q-74 0 -131 -24.5t-95.5 -68t-58 -104t-19.5 -133.5q0 -62 18.5 -109.5t53 -79.5t83 -48.5 t108.5 -16.5q41 0 78 4.5t74 16.5l15 -66q-50 -16 -95.5 -21t-97.5 -5z" />
<glyph unicode="&#x422;" horiz-adv-x="571" d="M279 640h-242l8 67h563l-8 -67h-241l-67 -640h-80z" />
<glyph unicode="&#x423;" horiz-adv-x="557" d="M98 62q23 7 43.5 16.5t39.5 23.5t36 34.5t33 51.5l18 32h-38l-189 487h88l167 -434l213 434h88l-275 -527q-27 -51 -49.5 -82.5t-45.5 -51t-48.5 -31.5t-56.5 -24z" />
<glyph unicode="&#x424;" horiz-adv-x="782" d="M329 85q-63 0 -115 15t-89.5 46.5t-58 79t-20.5 113.5q0 78 25 137.5t70.5 100.5t108.5 62t138 22l8 76h79l-8 -76q63 0 115 -15t89.5 -46.5t58 -79.5t20.5 -114q0 -78 -25.5 -137.5t-71 -100t-108 -61.5t-137.5 -22l-9 -85h-79zM381 595q-57 0 -104.5 -16t-81 -47.5 t-52 -77.5t-18.5 -106q0 -97 56 -147t154 -50zM415 151q58 0 105 17t80.5 49t51.5 78t18 104q0 98 -55.5 147t-153.5 49z" />
<glyph unicode="&#x425;" horiz-adv-x="588" d="M263 373l-163 334h89l127 -273l202 273h87l-256 -333l184 -374h-89l-148 309l-231 -309h-92z" />
<glyph unicode="&#x426;" horiz-adv-x="750" d="M603 0h-535l74 707h80l-66 -641h362l66 641h80l-67 -641h90l-22 -219h-78z" />
<glyph unicode="&#x427;" horiz-adv-x="630" d="M452 324q-46 -20 -96.5 -31t-101.5 -11q-57 0 -94 12.5t-59 34t-31 50t-9 60.5v17.5t2 17.5l24 233h79l-25 -238q-1 -5 -1 -10v-9q0 -36 14.5 -56.5t35.5 -31t44.5 -13t41.5 -2.5q42 0 89.5 12t93.5 36l32 312h81l-74 -707h-80z" />
<glyph unicode="&#x428;" horiz-adv-x="981" d="M142 707h80l-66 -641h270l67 641h80l-67 -641h271l66 641h80l-73 -707h-782z" />
<glyph unicode="&#x429;" horiz-adv-x="1009" d="M862 0h-794l74 707h80l-66 -641h270l67 641h80l-67 -641h271l66 641h80l-67 -641h91l-23 -219h-78z" />
<glyph unicode="&#x42a;" horiz-adv-x="679" d="M231 640h-191l7 67h271l-67 -642q1 0 19.5 -0.5t40.5 -0.5h40.5h19.5q81 0 128.5 39.5t53.5 115.5q4 42 -7 69.5t-33 44t-54 23.5t-70 7h-45l7 67h49q113 0 176 -46t63 -142v-12.5t-1 -12.5q-4 -53 -25.5 -93.5t-56.5 -68t-81 -41.5t-100 -14h-210z" />
<glyph unicode="&#x42b;" horiz-adv-x="837" d="M700 707h79l-74 -707h-80zM221 707l-67 -642q1 0 19.5 -0.5t40.5 -0.5h40.5h19.5q81 0 129 39.5t53 115.5q1 5 1 10v10q0 36 -12.5 59.5t-34.5 38t-52 20.5t-66 6h-49l6 67h55q112 0 175 -46.5t63 -142.5v-11.5t-1 -12.5q-4 -53 -25.5 -93.5t-56.5 -68t-81 -41.5 t-100 -14h-210l73 707h80z" />
<glyph unicode="&#x42c;" horiz-adv-x="582" d="M221 707l-67 -642q1 0 19.5 -0.5t40.5 -0.5h40.5h19.5q81 0 129 39.5t53 115.5q1 5 1 10v10q0 36 -12.5 59.5t-34.5 38t-52 20.5t-66 6h-49l6 67h55q112 0 175 -46.5t63 -142.5v-11.5t-1 -12.5q-4 -53 -25.5 -93.5t-56.5 -68t-81 -41.5t-100 -14h-210l73 707h80z" />
<glyph unicode="&#x42d;" horiz-adv-x="655" d="M208 -10q-86 0 -131.5 12t-61.5 21l26 62q25 -9 69.5 -18.5t92.5 -9.5q57 0 109 15.5t94 48t71 82.5t40 120h-364l7 66h364q2 71 -17 120.5t-53 80t-79.5 44t-96.5 13.5q-70 0 -114 -12t-61 -19l-18 63q6 3 21 9t39.5 12t60 10.5t82.5 4.5q78 0 137.5 -20.5t100 -59.5 t61.5 -95t21 -127q0 -15 -1 -30t-3 -31q-8 -77 -39 -143.5t-81.5 -115t-120 -76t-155.5 -27.5z" />
<glyph unicode="&#x42e;" horiz-adv-x="1061" d="M619 -11q-71 0 -125.5 21.5t-92 61.5t-58 95.5t-22.5 124.5q-1 4 -1 15v15h-139l-34 -322h-80l75 707h79l-33 -320h138q10 74 41 135t80 104.5t115.5 67.5t147.5 24q73 0 129.5 -22.5t94.5 -64t58 -100.5t20 -131q0 -91 -26.5 -166.5t-77 -130t-123.5 -84.5t-166 -30z M629 55q75 0 131 27t93.5 73.5t56.5 108.5t19 133q0 56 -14.5 102.5t-43.5 80t-72 52t-101 18.5q-73 0 -128.5 -26.5t-93 -72.5t-56.5 -107.5t-19 -131.5q0 -56 14 -103t42 -81t71 -53.5t101 -19.5z" />
<glyph unicode="&#x42f;" horiz-adv-x="635" d="M-2 17l236 287q-63 18 -96.5 61t-33.5 106q0 57 20.5 101t54.5 74t79 45.5t93 15.5h225l-72 -707h-81l29 286h-94h-21.5t-17.5 1l-250 -309zM459 350l31 293h-124q-84 0 -131 -46t-47 -121q0 -70 45 -98t125 -28h101z" />
<glyph unicode="&#x430;" d="M142 -13q-29 0 -49.5 12t-34 34t-20 52t-6.5 65q0 67 22 138t63.5 129.5t102 96t137.5 37.5q25 0 53.5 -2.5t45.5 -5.5l-56 -543h-76l11 99q-58 -52 -104.5 -82t-88.5 -30zM161 59q18 0 44.5 14.5t53 34t49.5 39t34 29.5l33 307q-6 2 -16 2h-18q-56 0 -99 -31.5 t-72.5 -80t-45 -106t-15.5 -109.5q0 -42 12.5 -70.5t39.5 -28.5z" />
<glyph unicode="&#x431;" horiz-adv-x="531" d="M213 -8q-73 0 -114.5 46.5t-41.5 127.5q0 70 9.5 142.5t27.5 138.5t43 121.5t55 92.5q16 19 48 35.5t74 30t90 24.5t95 20l13 -71q-27 -6 -65 -13t-76.5 -16t-72.5 -22t-54 -32q-13 -13 -24.5 -33.5t-21 -45t-18 -51.5t-14.5 -52q20 13 42.5 27t47.5 25t51.5 18.5 t54.5 7.5q62 0 91 -40.5t29 -120.5q0 -67 -18.5 -131.5t-53.5 -115.5t-84.5 -82t-112.5 -31zM227 57q46 0 79 28t55 71.5t32.5 94.5t10.5 98q0 30 -4.5 49.5t-13.5 30t-21 14.5t-27 4q-20 0 -45 -8.5t-50.5 -21t-49 -26.5t-40.5 -26q-8 -48 -13 -93t-5 -93q0 -39 8.5 -63 t22 -37t30 -17.5t31.5 -4.5z" />
<glyph unicode="&#x432;" horiz-adv-x="494" d="M212 -12q-50 0 -83.5 15t-53.5 39t-28.5 54t-8.5 60q0 76 18 149t53 130t86 91.5t118 34.5q36 0 60.5 -10.5t39.5 -27t21.5 -37t6.5 -41.5q0 -50 -29 -84t-72 -54q42 -15 67 -45.5t25 -79.5q0 -39 -15 -74t-43.5 -61.5t-69 -42.5t-92.5 -16zM213 53q36 0 63 10.5t45 27.5 t27 39t9 45q0 45 -25.5 69t-62.5 32l-150 -52q-1 -4 -2.5 -21t-1.5 -27q0 -57 21.5 -90t76.5 -33zM244 330q36 13 59 25.5t37 25.5t19.5 26t5.5 27q0 32 -19 47t-48 15q-39 0 -68.5 -18.5t-50.5 -48t-34.5 -66t-19.5 -73.5z" />
<glyph unicode="&#x433;" horiz-adv-x="422" d="M154 -9q-28 0 -52 7.5t-41.5 22t-27.5 36.5t-10 51q0 32 13.5 59t35.5 50t49.5 43.5t55.5 40.5q25 17 48.5 33.5t41.5 33t28.5 33.5t10.5 35q0 31 -17.5 43.5t-46.5 12.5q-41 0 -76 -19.5t-67 -39.5l-30 55q31 24 80 46t111 22q24 0 45.5 -6.5t38 -20.5t26 -35.5 t9.5 -51.5q0 -33 -14 -60t-37 -50.5t-51.5 -44t-56.5 -40.5q-24 -17 -46.5 -33t-39.5 -32t-27 -32.5t-10 -32.5q0 -19 5.5 -31t15 -18.5t21.5 -8.5t25 -2q19 0 40.5 7t44 18.5t44 25t39.5 25.5l33 -55q-19 -15 -44 -30.5t-53 -28t-57.5 -20.5t-56.5 -8z" />
<glyph unicode="&#x434;" horiz-adv-x="522" d="M203 -12q-37 0 -67 15t-51 40.5t-32 60.5t-11 75q0 89 19.5 152t51.5 103.5t74 59.5t86 19q22 0 41.5 -6.5t36 -15t29 -17.5t18.5 -14q-1 51 -8.5 91.5t-23 69.5t-41.5 44.5t-63 15.5q-18 0 -49.5 -5t-65.5 -15l-11 63q35 11 77 18t70 7q42 0 77 -15.5t60.5 -51t40 -92 t14.5 -138.5q0 -37 -4 -86t-15 -100.5t-30 -101t-49.5 -89t-73 -63.5t-100.5 -24zM218 53q35 0 66.5 25.5t55.5 70.5t38 106t16 133q-11 11 -26 21.5t-31.5 18.5t-33.5 13t-30 5q-69 0 -110.5 -62t-41.5 -185q0 -23 3 -48.5t12.5 -47.5t29 -36t52.5 -14z" />
<glyph unicode="&#x435;" horiz-adv-x="468" d="M173 -12q-38 0 -63 17t-39.5 45.5t-20.5 65.5t-6 76q0 73 17 140t50 118t82 81t114 30q36 0 62 -10t42.5 -27.5t24.5 -40t8 -47.5q0 -30 -12 -52.5t-32.5 -40t-46 -30.5t-52.5 -23l-178 -66v-27q0 -69 14 -105t49 -36q42 0 85.5 16.5t85.5 38.5l27 -57q-21 -12 -44 -24 t-49 -21t-55 -15t-63 -6zM289 353q38 15 59.5 36t21.5 44q0 35 -21 49t-45 14q-42 0 -71.5 -18t-50 -47t-33 -66t-19.5 -74z" />
<glyph unicode="&#x436;" horiz-adv-x="734" d="M-17 11l240 285l-164 250h89l158 -261l-244 -299zM353 546h77l-58 -546h-76zM424 285l209 261h91l-212 -257l179 -278l-77 -25z" />
<glyph unicode="&#x437;" horiz-adv-x="420" d="M150 -9q-33 0 -73.5 6t-77.5 20l22 62q34 -12 62.5 -17t56.5 -5q39 0 66 8.5t44.5 22.5t25.5 32.5t8 38.5q0 44 -35 68.5t-114 26.5l-6 53q34 8 63.5 20.5t51.5 29t35 36.5t13 41q0 26 -22 40.5t-79 14.5q-27 0 -56 -4t-52 -11l-17 59q30 12 66 17.5t72 5.5 q75 0 119.5 -27.5t44.5 -83.5q0 -48 -35 -88t-91 -63q34 -7 56.5 -21t35.5 -32t18 -38.5t5 -40.5q0 -36 -14 -67.5t-41 -54.5t-65.5 -36t-86.5 -13z" />
<glyph unicode="&#x438;" horiz-adv-x="525" d="M159 -11q-57 0 -80.5 26t-23.5 86q0 22 3 48l43 397h76l-42 -378q-3 -32 -3 -53q0 -34 10.5 -47t36.5 -13q24 0 47 9t45 23.5t42.5 33t40.5 37.5l42 388h76l-58 -546h-76l9 90q-43 -43 -87 -72t-101 -29z" />
<glyph unicode="&#x439;" horiz-adv-x="525" d="M273 652q-30 0 -60.5 28.5t-53.5 66.5l60 40q20 -29 39.5 -49t34.5 -20q29 0 68.5 18t81.5 52l29 -36q-47 -43 -100.5 -71.5t-98.5 -28.5zM159 -11q-57 0 -80.5 26t-23.5 86q0 22 3 48l43 397h76l-42 -378q-3 -32 -3 -53q0 -34 10.5 -47t36.5 -13q24 0 47 9t45 23.5 t42.5 33t40.5 37.5l42 388h76l-58 -546h-76l9 90q-43 -43 -87 -72t-101 -29z" />
<glyph unicode="&#x43a;" horiz-adv-x="485" d="M174 287l210 259h91l-213 -257l179 -278l-77 -25zM104 546h77l-58 -546h-76z" />
<glyph unicode="&#x43b;" horiz-adv-x="458" d="M3 0q-1 2 -1 9v9q0 42 14 87.5t34 87.5l182 353h126l21 -546h-80l-8 476h-21l-147 -291q-19 -41 -31.5 -85t-12.5 -82v-18h-76v0z" />
<glyph unicode="&#x43c;" horiz-adv-x="716" d="M19 0q-1 2 -1 9v9q0 42 9.5 86.5t24.5 88.5l123 353h116l34 -470l214 470h124l-57 -546h-76l51 492l-225 -492h-98l-33 492l-99 -307q-14 -43 -22 -86t-8 -81v-18h-77v0z" />
<glyph unicode="&#x43d;" horiz-adv-x="528" d="M105 546h76l-26 -237l221 18l24 219h76l-59 -546h-76l27 256l-221 -17l-25 -239h-76z" />
<glyph unicode="&#x43e;" horiz-adv-x="515" d="M200 -12q-39 0 -68.5 15.5t-50 41.5t-31 61t-10.5 74q0 87 20 157t56 119.5t86 76.5t110 27q40 0 69.5 -16.5t49 -42.5t29 -60t9.5 -68q0 -65 -14 -133t-45.5 -124t-83 -92t-126.5 -36zM219 54q34 0 65.5 22.5t55 63t37.5 96t14 122.5q0 72 -23.5 105t-78.5 33 q-34 0 -65 -23.5t-54 -64t-37 -95.5t-14 -118q0 -24 3.5 -49t14 -45.5t30 -33.5t52.5 -13z" />
<glyph unicode="&#x43f;" horiz-adv-x="526" d="M104 546h77l-9 -90l46 38t47 33.5t50 23.5t55 9q54 0 74 -25.5t20 -79.5q0 -27 -3 -61l-43 -394h-76l41 378q2 15 3 28t1 24q0 32 -9.5 45t-34.5 13q-32 0 -73.5 -24t-105.5 -77l-41 -387h-76z" />
<glyph unicode="&#x440;" horiz-adv-x="529" d="M105 546h75l-7 -76q18 13 39 27t45 25t50.5 18.5t54.5 7.5q63 0 92.5 -41t29.5 -119q0 -65 -16.5 -135t-52 -128t-91 -95.5t-133.5 -37.5q-20 0 -37 2t-32 5l-24 -219h-76zM197 56q40 0 71.5 16t54.5 43t39 61.5t26 71.5t14.5 73.5t4.5 67.5q0 28 -5 46t-13.5 28.5 t-20.5 14.5t-26 4q-20 0 -43.5 -8t-48 -20t-47 -25.5t-38.5 -24.5l-36 -338q21 -4 33.5 -7t34.5 -3z" />
<glyph unicode="&#x441;" horiz-adv-x="450" d="M172 -12q-38 0 -63 18.5t-40 47.5t-21 63.5t-6 66.5q0 77 18 145.5t52 119.5t84 81t114 30q45 0 77 -15.5t51 -33.5l-42 -48q-16 12 -38.5 22.5t-52.5 10.5q-54 0 -89.5 -31t-56 -76t-29 -97t-8.5 -94q0 -69 17 -105t39 -36q38 0 80.5 13t101.5 44l27 -54 q-20 -12 -42.5 -25t-49 -23.5t-57 -17t-66.5 -6.5z" />
<glyph unicode="&#x442;" horiz-adv-x="799" d="M104 546h77l-9 -89q17 15 38.5 33t46 33.5t51 26t54.5 10.5q52 0 73 -23.5t20 -71.5q21 18 44 35t47 30.5t49 21.5t51 8q52 0 72 -24.5t20 -78.5q0 -14 -1 -30t-3 -33l-42 -394h-76l41 378q2 17 3 30.5t1 24.5q0 32 -10 44t-36 12q-35 0 -73.5 -25t-91.5 -70l-42 -394 h-76l41 378q2 17 3.5 30.5t1.5 24.5q0 32 -10 43t-36 11q-31 0 -70.5 -25t-97.5 -75l-41 -387h-76z" />
<glyph unicode="&#x443;" horiz-adv-x="476" d="M173 0h-41l-85 546h82l70 -492q1 1 7.5 15.5t17 36t23.5 49t27 56.5q32 67 72 150q20 41 32.5 87.5t12.5 78.5q0 5 -0.5 9.5t-0.5 9.5h79q0 -2 0.5 -9.5t0.5 -9.5q0 -38 -14 -85t-34 -89l-277 -573h-79z" />
<glyph unicode="&#x444;" horiz-adv-x="691" d="M274 -12q-56 0 -99 15.5t-72 43t-44 64.5t-15 81q0 84 17.5 151.5t53.5 115t90.5 73.5t128.5 27l21 195h77l-21 -195q56 0 99 -15.5t72 -43t44 -64.5t15 -81q0 -84 -17.5 -152t-53.5 -115.5t-91 -73t-129 -26.5l-22 -208h-76zM327 496q-52 0 -90.5 -21.5t-63.5 -60 t-37.5 -91t-12.5 -113.5q0 -29 6 -57t23 -50t48 -35.5t81 -13.5zM356 52q52 0 91 21.5t64.5 60t38 90.5t12.5 114q0 28 -6 55.5t-23 49t-48 35.5t-81 16z" />
<glyph unicode="&#x445;" horiz-adv-x="453" d="M190 291l-114 255h81l83 -192l138 192h83l-192 -257l126 -289h-82l-93 224l-163 -224h-85z" />
<glyph unicode="&#x446;" horiz-adv-x="557" d="M432 0q-25 0 -41 4.5t-25.5 12.5t-14 19t-5.5 24v14.5t1 15.5q-15 -15 -35 -32.5t-44 -32.5t-51.5 -25.5t-57.5 -10.5q-57 0 -80.5 26t-23.5 86q0 22 3 48l43 397h76l-42 -378q-2 -18 -3 -32.5t-1 -25.5q1 -31 11.5 -43t36.5 -12q24 0 49 11.5t49 28t44 34t33 29.5 l42 388h76l-45 -419q-1 -9 -1.5 -16.5t-0.5 -12.5q1 -21 11 -27t39 -8h38l-21 -200h-74z" />
<glyph unicode="&#x447;" horiz-adv-x="481" d="M325 275q-14 -12 -34 -27t-44.5 -28.5t-51.5 -22.5t-54 -9q-55 0 -75 21.5t-20 72.5q0 16 2 34t4 40l19 190h77l-19 -178q-6 -44 -6 -66q0 -26 10 -35.5t37 -9.5q15 0 39 11t48 25.5t45 29t30 20.5l20 203h76l-57 -546h-75z" />
<glyph unicode="&#x448;" horiz-adv-x="758" d="M141 -14q-54 0 -74 21.5t-20 68.5q0 16 2 35t5 41l58 394h75l-56 -378q-2 -23 -4 -40t-2 -28q0 -24 9 -33.5t33 -9.5q18 0 39.5 11t43 26.5t40 31.5t30.5 26l52 394h76l-51 -378q-2 -22 -4.5 -39t-2.5 -29q0 -24 9.5 -32.5t32.5 -8.5q16 0 38.5 12.5t45.5 29t42.5 33.5 t29.5 25l42 387h76l-58 -546h-76l9 89q-15 -12 -33.5 -30t-41 -34t-47.5 -27.5t-52 -11.5q-57 0 -75 23.5t-17 71.5q-15 -12 -34 -28.5t-41 -31.5t-47 -25t-52 -10z" />
<glyph unicode="&#x449;" horiz-adv-x="791" d="M666 0q-49 0 -66 16.5t-19 42.5q-2 13 0 30q-14 -12 -33 -30t-41.5 -34t-47.5 -27.5t-52 -11.5q-57 0 -75 23.5t-17 71.5q-15 -12 -34 -28.5t-41 -31.5t-47 -25t-52 -10q-54 0 -74 21.5t-20 68.5q0 16 2 35t5 41l58 394h75l-56 -378q-2 -23 -4 -40.5t-2 -29.5 q0 -23 9 -32t33 -9q18 0 39.5 11t43 26.5t40 31.5t30.5 26l52 394h76l-51 -378q-3 -23 -5 -41t-2 -30q1 -22 10 -30t32 -8q16 0 38.5 12.5t45.5 29t42.5 33.5t29.5 25l42 387h76l-44 -419q-1 -10 -1.5 -17t-0.5 -13q1 -20 12 -26.5t40 -7.5h36l-22 -200h-74z" />
<glyph unicode="&#x44a;" d="M232 -8q-26 0 -50.5 7t-44 23.5t-31.5 43.5t-12 68q0 48 10 92t28.5 86.5t44 84t56.5 83.5h-199l7 66h289l14 -34q-46 -51 -79 -99t-51 -96q34 26 72 46.5t80 20.5q29 0 48.5 -10t31.5 -27t17 -39t5 -47q0 -61 -19.5 -110.5t-52.5 -85t-75.5 -54.5t-88.5 -19zM245 55 q26 0 52 12.5t47 37.5t34 62.5t13 88.5q0 28 -12 45t-39 17q-18 0 -38 -7t-40 -17.5t-38.5 -23t-33.5 -24.5q-8 -26 -13 -51.5t-5 -57.5q0 -47 20.5 -64.5t52.5 -17.5z" />
<glyph unicode="&#x44b;" horiz-adv-x="653" d="M524 546h76l-57 -546h-76zM178 -8q-42 0 -76.5 7t-65.5 19l80 528h75l-33 -235q18 13 37 26t39.5 23.5t41.5 17t44 6.5q29 0 48.5 -9.5t31.5 -26.5t17.5 -39.5t5.5 -47.5q0 -60 -19 -109.5t-52.5 -85t-78 -55t-95.5 -19.5zM188 56q30 0 58 12.5t50.5 37t36 62t13.5 88.5 q0 27 -11.5 44.5t-39.5 17.5q-18 0 -37 -7t-38 -17.5t-37.5 -23.5t-34.5 -25l-27 -177q16 -8 30 -10t37 -2z" />
<glyph unicode="&#x44c;" horiz-adv-x="464" d="M178 -8q-42 0 -76.5 7t-65.5 19l80 528h75l-33 -235q18 13 37 26t39.5 23.5t41.5 17t44 6.5q29 0 48.5 -9.5t31.5 -26.5t17.5 -39.5t5.5 -47.5q0 -60 -19 -109.5t-52.5 -85t-78 -55t-95.5 -19.5zM188 56q30 0 58 12.5t50.5 37t36 62t13.5 88.5q0 27 -11.5 44.5 t-39.5 17.5q-18 0 -37 -7t-38 -17.5t-37.5 -23.5t-34.5 -25l-27 -177q16 -8 30 -10t37 -2z" />
<glyph unicode="&#x44d;" horiz-adv-x="435" d="M120 -12q-35 0 -68.5 13.5t-53.5 32.5l33 55q17 -11 43 -23.5t61 -12.5q29 0 55 14.5t47 40t37 61t25 78.5h-170l5 61h174q2 11 2 24v25q0 69 -17 103.5t-68 34.5q-16 0 -33.5 -3t-35.5 -8t-34.5 -11t-29.5 -12l-23 51q33 20 76 34t93 14q43 0 72 -15.5t46.5 -41.5 t25 -59t7.5 -69q0 -70 -15 -139t-47.5 -124t-83.5 -89.5t-123 -34.5z" />
<glyph unicode="&#x44e;" horiz-adv-x="727" d="M412 -12q-39 0 -68.5 15.5t-50 41.5t-31 61t-10.5 74q0 17 0.5 34.5t2.5 33.5l-108 -9l-25 -239h-76l59 546h76l-26 -237l112 9q26 114 94 178t163 64q40 0 69.5 -16.5t49 -42.5t29 -60t9.5 -68q0 -65 -14 -133t-45.5 -124t-83 -92t-126.5 -36zM430 54q35 0 66.5 22.5 t55 63t37.5 96t14 122.5q0 72 -23.5 105t-78.5 33q-34 0 -65 -23.5t-54 -64t-37 -95.5t-14 -118q0 -24 3.5 -49t14 -45.5t30 -33.5t51.5 -13z" />
<glyph unicode="&#x44f;" horiz-adv-x="484" d="M-8 11l191 211q-15 4 -34.5 13.5t-37 26t-29 40t-11.5 55.5q0 22 7.5 55.5t31.5 65.5t70 55t123 23q13 0 30 -1.5t34.5 -4.5t34.5 -7t29 -8l-55 -535h-76l51 485q-11 3 -28 5t-34 2q-29 0 -55 -7t-45.5 -23t-31 -40.5t-11.5 -58.5q0 -33 17 -54t40 -33.5t48 -18.5t42 -9 l-223 -262z" />
<glyph unicode="&#x451;" horiz-adv-x="468" d="M173 -12q-38 0 -63 17t-39.5 45.5t-20.5 65.5t-6 76q0 73 17 140t50 118t82 81t114 30q36 0 62 -10t42.5 -27.5t24.5 -40t8 -47.5q0 -30 -12 -52.5t-32.5 -40t-46 -30.5t-52.5 -23l-178 -66v-27q0 -69 14 -105t49 -36q42 0 85.5 16.5t85.5 38.5l27 -57q-21 -12 -44 -24 t-49 -21t-55 -15t-63 -6zM289 353q38 15 59.5 36t21.5 44q0 35 -21 49t-45 14q-42 0 -71.5 -18t-50 -47t-33 -66t-19.5 -74zM155 714l62 56l51 -56l-62 -56zM352 714l61 56l51 -56l-63 -56z" />
<glyph unicode="&#x452;" horiz-adv-x="529" d="M210 -175q34 39 66 93.5t56.5 117.5t39 130t14.5 131q0 60 -11.5 85.5t-45.5 25.5q-17 0 -42.5 -13.5t-51.5 -31t-48.5 -34t-32.5 -23.5l-32 -306h-76l60 575h-91l6 63h92l13 117h76l-12 -117h189l-6 -63h-190l-21 -200q14 12 36 29.5t49 34t57 28.5t60 12 q56 0 78.5 -42.5t22.5 -118.5q0 -78 -17 -154t-44.5 -145t-64 -130t-75.5 -109z" />
<glyph unicode="&#x456;" horiz-adv-x="233" d="M104 546h76l-57 -546h-76zM94 715l72 63l59 -63l-73 -63z" />
<glyph unicode="&#x458;" horiz-adv-x="233" d="M-76 -220q-23 0 -44 4.5t-31 8.5l19 65q10 -3 27.5 -7t37.5 -4q31 0 51 9.5t32.5 27.5t18.5 43t9 56l60 563h76l-60 -564q-6 -59 -23 -98t-42.5 -62t-59 -32.5t-71.5 -9.5zM91 715l72 63l59 -63l-73 -63z" />
<glyph unicode="&#x459;" horiz-adv-x="681" d="M399 -8q-26 0 -50.5 3.5t-51.5 10.5l-23 476h-11l-138 -297q-19 -41 -32 -85t-13 -82v-9t1 -9h-77q-1 2 -1 9v9q0 42 14 87.5t34 87.5l172 353h114l19 -248q19 15 40.5 30t44.5 27.5t47 20.5t49 8q29 0 48.5 -9.5t31.5 -26.5t17.5 -39.5t5.5 -47.5q0 -60 -19 -109.5 t-52 -85t-77 -55t-93 -19.5zM407 56q30 0 58 12.5t49.5 37t35 62t13.5 88.5q0 27 -12 44.5t-39 17.5q-19 0 -38.5 -7t-39 -18.5t-38.5 -25t-36 -25.5l15 -185q6 -1 14 -1h18z" />
<glyph unicode="&#x45a;" horiz-adv-x="761" d="M475 -8q-35 0 -69.5 6t-62.5 17l25 241l-221 -17l-25 -239h-76l59 546h76l-26 -237l221 18l24 219h76l-26 -238q37 27 79 51.5t88 24.5q29 0 48.5 -9.5t31.5 -26.5t17.5 -39.5t5.5 -47.5q0 -60 -19 -109.5t-52.5 -85t-78 -55t-95.5 -19.5zM485 56q30 0 58 12.5t50.5 37 t36 62t13.5 88.5q0 27 -11.5 44.5t-39.5 17.5q-18 0 -37 -7t-38.5 -18t-38 -24t-35.5 -25l-19 -179q14 -5 27.5 -7t33.5 -2z" />
<glyph unicode="&#x45b;" horiz-adv-x="521" d="M106 575h-91l6 63h92l13 117h76l-12 -117h189l-6 -63h-190l-21 -200q14 12 36 29.5t48.5 34t55.5 28.5t58 12q56 0 76 -22t20 -71q0 -15 -1.5 -33.5t-3.5 -39.5l-34 -313h-76l33 297q2 21 3.5 37.5t1.5 28.5q0 25 -9.5 35t-38.5 10q-16 0 -42 -13.5t-53 -31.5 t-49.5 -34.5t-32.5 -22.5l-32 -306h-76z" />
<glyph unicode="&#x45e;" horiz-adv-x="476" d="M173 0h-41l-85 546h82l70 -492q1 1 7.5 15.5t17 36t23.5 49t27 56.5q32 67 72 150q20 41 32.5 87.5t12.5 78.5q0 5 -0.5 9.5t-0.5 9.5h79q0 -2 0.5 -9.5t0.5 -9.5q0 -38 -14 -85t-34 -89l-277 -573h-79zM246 652q-30 0 -60.5 28.5t-53.5 66.5l60 40q20 -29 39.5 -49 t34.5 -20q29 0 68.5 18t81.5 52l29 -36q-47 -43 -100.5 -71.5t-98.5 -28.5z" />
<glyph unicode="&#x45f;" horiz-adv-x="525" d="M248 -38h59l-19 -182h-80zM159 -11q-57 0 -80.5 26t-23.5 86q0 22 3 48l43 397h76l-42 -378q-3 -32 -3 -53q0 -34 10.5 -47t36.5 -13q24 0 47 9t45 23.5t42.5 33t40.5 37.5l42 388h76l-58 -546h-76l9 90q-43 -43 -87 -72t-101 -29z" />
<glyph horiz-adv-x="522" d="M223 -12q-86 0 -123.5 60t-37.5 171q0 20 1 41t3 44l21 213q6 61 26.5 109t51.5 81t70 50t82 17q73 0 112.5 -32.5t39.5 -102.5q0 -109 -108 -183q55 -9 83 -53.5t28 -111.5q0 -59 -17 -114t-49.5 -97t-78.5 -67t-104 -25zM229 51q37 0 67.5 19t52.5 51t34 73.5t12 85.5 q0 63 -19 94.5t-77 31.5q-18 0 -38 -5.5t-40.5 -14t-40 -18t-36.5 -16.5l-6 -51q-2 -23 -3 -43.5t-1 -39.5q0 -87 24.5 -127t70.5 -40zM149 408q18 8 36.5 15.5t38.5 15.5q36 16 67 35.5t53.5 43t35 51.5t12.5 61q0 45 -23.5 62.5t-66.5 17.5q-56 0 -92.5 -47.5 t-47.5 -140.5z" />
<glyph horiz-adv-x="509" d="M147 -230q-30 0 -57.5 2.5t-50.5 6t-39.5 7.5t-24.5 6l18 68q11 -3 28.5 -7t37 -7.5t39.5 -6t37 -2.5q36 0 68 5t56.5 20t40.5 43t21 75l13 119q-58 -55 -103 -83.5t-90 -28.5q-58 0 -82.5 41.5t-24.5 122.5q0 78 24.5 150.5t67.5 128t102.5 88.5t128.5 33 q24 0 52.5 -2.5t46.5 -5.5l-61 -579q-6 -57 -30 -94t-58.5 -59.5t-76.5 -31.5t-83 -9zM160 59q18 0 44.5 14.5t53.5 34t49.5 39t33.5 29.5l33 307q-6 2 -15 2h-19q-50 0 -92 -28.5t-72.5 -74.5t-48 -104t-17.5 -116q0 -62 13.5 -82.5t36.5 -20.5z" />
<glyph horiz-adv-x="734" d="M-17 11l240 285l-164 250h89l157 -261l-243 -299zM424 285l209 261h91l-212 -257l179 -278l-77 -25zM376 754h77l-81 -754h-76z" />
<glyph horiz-adv-x="437" d="M114 -212q-62 0 -100.5 9t-67.5 22l25 62q24 -9 59 -17t84 -8q35 0 68.5 12.5t59 34.5t41 52.5t15.5 67.5q0 66 -54 104t-157 39l2 59q28 0 65.5 15t70.5 39.5t56 57.5t23 71q0 25 -11.5 41.5t-30 26.5t-42 14t-47.5 4q-35 0 -69 -6t-57 -14l-17 56q32 14 72.5 22t82.5 8 q37 0 72 -7.5t62.5 -24.5t44.5 -45t17 -68q0 -38 -16 -70.5t-40.5 -58.5t-53.5 -45t-55 -30v-2q34 -6 63 -20.5t50.5 -37t33.5 -53t12 -70.5q0 -55 -22.5 -99.5t-59 -75.5t-83.5 -48t-96 -17z" />
<glyph horiz-adv-x="482" d="M173 288l201 258h90l-203 -255l181 -280l-77 -25zM125 754h77l-80 -754h-76z" />
<glyph horiz-adv-x="726" d="M411 -12q-39 0 -68.5 15.5t-50 41.5t-31 61t-10.5 74q0 17 0.5 34.5t2.5 33.5l-108 -9l-25 -239h-76l82 754h76l-49 -445l112 9q27 114 94.5 178t162.5 64q40 0 69.5 -16.5t49 -42.5t29 -60t9.5 -68q0 -65 -14 -133t-45.5 -124t-83 -92t-126.5 -36zM430 54 q34 0 65.5 22.5t55 63t37.5 96t14 122.5q0 72 -23.5 105t-78.5 33q-34 0 -65 -23.5t-54 -64t-37 -95.5t-14 -118q0 -24 3.5 -49t14 -45.5t30.5 -33.5t52 -13z" />
<glyph horiz-adv-x="506" d="M204 -12q-75 0 -122 50t-47 142q0 64 15.5 117t42.5 93.5t63.5 69.5t79.5 45q-15 9 -29.5 21t-26 27t-19 33t-7.5 40q0 40 15.5 68t41 46t59.5 26t71 8q49 0 86.5 -9t66.5 -20l-21 -60q-29 10 -61 17.5t-80 7.5q-50 0 -78 -18t-28 -56q0 -23 11 -40t28.5 -31.5t38 -26.5 t39.5 -25t39.5 -29.5t37.5 -40.5t27.5 -55.5t10.5 -74.5q0 -81 -21.5 -142t-57.5 -101.5t-81.5 -61t-93.5 -20.5zM218 54q39 0 69.5 24.5t51.5 62t31.5 81t10.5 82.5q0 37 -7 63t-20 45t-30.5 33t-38.5 27q-44 -19 -76.5 -49t-53.5 -67.5t-31.5 -80t-10.5 -85.5 q0 -61 22.5 -98.5t82.5 -37.5z" />
<glyph horiz-adv-x="233" d="M104 546h76l-57 -546h-76zM31 734h261l-7 -64h-261z" />
<glyph horiz-adv-x="509" d="M147 -230q-30 0 -57.5 2.5t-50.5 6t-39.5 7.5t-24.5 6l18 68q11 -3 28.5 -7t37 -7.5t39.5 -6t37 -2.5q36 0 68 5t56.5 20t40.5 43t21 75l13 119q-58 -55 -103 -83.5t-90 -28.5q-58 0 -82.5 41.5t-24.5 122.5q0 78 24.5 150.5t67.5 128t102.5 88.5t128.5 33 q24 0 52.5 -2.5t46.5 -5.5l-61 -579q-6 -57 -30 -94t-58.5 -59.5t-76.5 -31.5t-83 -9zM160 59q18 0 44.5 14.5t53.5 34t49.5 39t33.5 29.5l33 307q-6 2 -15 2h-19q-50 0 -92 -28.5t-72.5 -74.5t-48 -104t-17.5 -116q0 -62 13.5 -82.5t36.5 -20.5z" />
<glyph horiz-adv-x="525" d="M159 -11q-57 0 -80.5 26t-23.5 86q0 22 3 48l43 397h76l-42 -378q-3 -32 -3 -53q0 -34 10.5 -47t36.5 -13q24 0 47 9t45 23.5t42.5 33t40.5 37.5l42 388h76l-58 -546h-76l9 90q-43 -43 -87 -72t-101 -29zM177 734h261l-7 -64h-261z" />
<glyph horiz-adv-x="758" d="M185 734h472l-7 -64h-471zM141 -14q-54 0 -74 21.5t-20 68.5q0 16 2 35t5 41l58 394h75l-56 -378q-2 -23 -4 -40t-2 -28q0 -24 9 -33.5t33 -9.5q18 0 39.5 11t43 26.5t40 31.5t30.5 26l52 394h76l-51 -378q-2 -22 -4.5 -39t-2.5 -29q0 -24 9.5 -32.5t32.5 -8.5 q16 0 38.5 12.5t45.5 29t42.5 33.5t29.5 25l42 387h76l-58 -546h-76l9 89q-15 -12 -33.5 -30t-41 -34t-47.5 -27.5t-52 -11.5q-57 0 -75 23.5t-17 71.5q-15 -12 -34 -28.5t-41 -31.5t-47 -25t-52 -10z" />
<glyph unicode="0" horiz-adv-x="626" d="M274 -9q-62 0 -103.5 21t-66 57.5t-35 85t-10.5 103.5q0 49 6 102t20 103.5t37.5 95.5t57.5 79.5t80.5 54.5t106.5 20q61 0 101.5 -20.5t64.5 -55.5t34 -82t10 -101q0 -49 -5.5 -102t-19 -104.5t-36 -98t-56 -81.5t-79.5 -56t-107 -21zM286 57q46 0 79.5 19t57 50.5 t38 72.5t22.5 84t11 85t3 77q0 37 -5.5 73t-21.5 65t-43.5 47t-72.5 18q-46 0 -79.5 -18.5t-57.5 -49.5t-39 -70.5t-24 -82t-12 -84.5t-3 -77q0 -37 6 -74.5t22 -67.5t45 -48.5t74 -18.5z" />
<glyph unicode="1" horiz-adv-x="288" d="M162 642h-141l7 59l216 6l-74 -707h-75z" />
<glyph unicode="2" horiz-adv-x="501" d="M-2 63q31 26 70.5 60t81.5 73t82 81t71.5 85.5t50.5 86.5t19 83q0 116 -116 116q-39 0 -80 -11.5t-74 -32.5l-25 57q46 31 91 43.5t102 12.5q86 0 133 -44.5t47 -132.5q0 -47 -17 -92t-45 -88.5t-64.5 -84t-76 -77.5t-79.5 -70t-74 -61h352l-7 -67h-449z" />
<glyph unicode="3" horiz-adv-x="463" d="M157 -11q-20 0 -42.5 1.5t-45.5 5t-44.5 10t-39.5 15.5l27 64q34 -12 70 -19t73 -7q32 0 63.5 6t56 21.5t40 42.5t15.5 69q0 35 -16.5 60.5t-42.5 42t-57.5 25.5t-61.5 11l6 59q31 2 63.5 15t58 34.5t42 50t16.5 63.5q0 26 -9.5 43t-25 27.5t-36.5 15t-43 4.5 q-29 0 -61.5 -6t-59.5 -16l-18 58q15 7 34 13t40 10t41.5 6t38.5 2q37 0 68.5 -9t54.5 -28t36 -48t13 -68q0 -30 -12 -60.5t-33 -56.5t-48.5 -45t-58.5 -26q29 -8 55.5 -23.5t47 -37.5t32.5 -50t12 -60q0 -58 -19 -99t-53 -66.5t-79.5 -37.5t-97.5 -12z" />
<glyph unicode="4" horiz-adv-x="518" d="M300 191h-309l7 64l312 452h121l-47 -450h123l-7 -66h-123l-20 -191h-77zM308 257l41 398l-272 -398h231z" />
<glyph unicode="5" horiz-adv-x="466" d="M177 -11q-43 0 -84 6.5t-81 22.5l22 66q38 -12 73 -20t76 -8q81 0 127 44.5t46 119.5q0 44 -27.5 74.5t-69.5 50t-92.5 30t-95.5 14.5l33 318h333l-6 -64h-264l-19 -193q55 -8 106 -24.5t90.5 -43.5t63 -64.5t23.5 -88.5t-18.5 -94.5t-52 -76t-80 -51t-103.5 -18.5z" />
<glyph unicode="6" horiz-adv-x="528" d="M265 -11q-105 0 -156.5 62.5t-51.5 173.5q0 55 7 113t23 113t41.5 103t63 84t88 57t115.5 21q25 0 48 -3.5t45 -13.5l-22 -65q-37 14 -86 14q-50 0 -87 -18.5t-64.5 -50t-45.5 -73.5t-28.5 -89t-15 -97t-4.5 -97q0 -76 34.5 -123.5t103.5 -47.5q37 0 64 16.5t44 42.5 t25 59.5t8 67.5q0 37 -10 62.5t-28 41t-42.5 22.5t-52.5 7q-14 0 -31.5 -2.5t-33.5 -5.5l-1 60q20 6 42 9.5t42 3.5q40 0 75.5 -12t62 -36t41.5 -59.5t15 -82.5q0 -53 -14.5 -100t-43.5 -82t-71.5 -55t-98.5 -20z" />
<glyph unicode="7" horiz-adv-x="409" d="M9 19l361 620h-346l8 68h426l-7 -66l-377 -652z" />
<glyph unicode="8" horiz-adv-x="517" d="M222 -10q-39 0 -74 10t-61.5 29.5t-41.5 47t-15 62.5q0 41 13.5 75t37 62.5t55.5 51.5t70 43q-21 16 -41 33t-35.5 37t-24.5 43.5t-9 53.5q0 43 17 76t46 55t67.5 33.5t82.5 11.5q31 0 61 -9t53.5 -26t37.5 -42.5t14 -58.5q0 -37 -13 -68t-34.5 -57t-49 -47t-57.5 -37 q25 -16 49 -35t43.5 -42t31.5 -50t12 -58q0 -49 -21 -85.5t-55 -60.5t-75.5 -36t-83.5 -12zM237 52q30 0 56 9t45.5 26t30.5 41.5t11 55.5q0 25 -13.5 48t-33.5 42.5t-42.5 35.5t-40.5 28q-25 -15 -50.5 -33t-46 -40.5t-33.5 -49.5t-13 -61q0 -50 37 -76t93 -26zM274 401 q24 14 46.5 31t40 38t27.5 46t10 54q0 41 -32 62t-74 21q-52 0 -87 -30t-35 -81q0 -23 10.5 -43t26 -37.5t33.5 -32.5t34 -28z" />
<glyph unicode="9" horiz-adv-x="530" d="M145 -13q-24 0 -47 3.5t-45 13.5l22 65q34 -14 86 -14q75 0 122.5 40t75 102.5t37.5 137.5t10 145q0 76 -34.5 123.5t-103.5 47.5q-38 0 -65 -16.5t-44 -42.5t-25 -59.5t-8 -67.5q0 -37 10 -62.5t28 -41t42.5 -22.5t53.5 -7q31 0 66 8v-60q-20 -6 -42 -9.5t-42 -3.5 q-41 0 -76 12t-61.5 36t-41.5 59.5t-15 82.5q0 53 14.5 100t43 82t71.5 55t99 20q105 0 156 -62t51 -175q0 -55 -7 -113t-22.5 -112.5t-41.5 -102.5t-63.5 -84t-88 -57t-115.5 -21z" />
<glyph unicode="&#x2122;" horiz-adv-x="785" d="M389 707h64l71 -303l151 303h63l-6 -354h-58l8 255l-127 -255h-75l-62 259l-54 -259h-56zM172 654h-118l6 53h293l-6 -53h-117l-32 -301h-58z" />
<glyph unicode="&#xae;" horiz-adv-x="549" d="M298 311q-39 0 -80 11t-75 37t-56 68.5t-22 104.5q0 54 18 95.5t49.5 70t73.5 43.5t91 15q42 0 83 -12t74 -39t53.5 -69.5t20.5 -103.5q0 -53 -18 -94.5t-49 -69.5t-73 -42.5t-90 -14.5zM303 353q37 0 70 11.5t57 34.5t38 56t14 77q0 48 -16 82t-42 56.5t-59 33t-67 10.5 q-37 0 -71 -10t-59.5 -31.5t-40.5 -55.5t-15 -81q0 -59 21.5 -95t51.5 -55.5t62.5 -26t55.5 -6.5zM413 417q-23 1 -40.5 6.5t-31.5 20.5q-16 16 -29 36t-22 34h-34v-91h-47v242h90q38 0 61 -18t23 -57q0 -47 -45 -68q6 -8 15.5 -22.5t20.5 -25.5t21.5 -15t23.5 -9zM287 547 q26 0 38.5 9.5t12.5 32.5q0 22 -10 32t-36 10h-36v-84h31z" />
<glyph unicode="&#xa9;" horiz-adv-x="828" d="M385 152q-48 0 -84.5 13.5t-60.5 37t-35.5 56.5t-10.5 72q1 52 16.5 96t45 76t72.5 50t100 18q41 0 66.5 -7t50.5 -21l-25 -47q-25 11 -44.5 16t-52.5 5q-71 0 -118.5 -45.5t-49.5 -133.5q-1 -34 10.5 -58.5t32 -40.5t47.5 -24t58 -8q24 0 46.5 4.5t48.5 12.5l13 -48 q-34 -13 -62 -18.5t-64 -5.5zM335 -10q-72 0 -129 22.5t-96.5 63.5t-60.5 98t-21 127q0 91 29 167.5t82 132t127.5 87t164.5 31.5q74 0 131 -23.5t96 -65t59 -98.5t20 -125q0 -89 -28 -165t-80.5 -132t-126.5 -88t-167 -32zM344 44q81 0 143 28.5t104 77t63.5 113 t21.5 136.5q0 58 -16 106.5t-48 83.5t-80 55t-112 20q-78 0 -139.5 -28t-103.5 -76t-64.5 -112t-22.5 -136q0 -55 15 -104t46.5 -85.5t79.5 -57.5t113 -21z" />
<glyph unicode="&#xa4;" horiz-adv-x="546" d="M65 177l70 69q-16 19 -26 47t-10 59t9 59t26 47l-68 68l38 38l70 -70q21 13 48.5 22.5t55.5 9.5t55 -7t50 -23l68 69l40 -40l-67 -67q17 -19 25.5 -47t8.5 -59t-9.5 -59.5t-26.5 -47.5l68 -68l-38 -39l-69 69q-23 -12 -50 -20t-55 -8q-58 0 -102 30l-72 -71zM278 242 q58 0 84.5 32t26.5 78t-27.5 78.5t-83.5 32.5t-83.5 -32.5t-27.5 -78.5t28.5 -78t82.5 -32z" />
<glyph unicode="&#x20ac;" horiz-adv-x="630" d="M390 -10q-66 0 -113 21t-78 55t-47.5 77.5t-22.5 88.5h-91l7 61h80q0 31 2.5 60.5t8.5 58.5h-79l6 62h89q16 49 43 93t65.5 76.5t89 51.5t115.5 19q32 0 56 -3t41 -7.5t29 -9.5t20 -9l-27 -60q-8 3 -18 6.5t-24.5 6.5t-35 5t-49.5 2q-45 0 -81 -14t-64 -37t-48.5 -54.5 t-33.5 -65.5h245l-6 -62h-258q-9 -42 -9 -87q-1 -8 -0.5 -16t0.5 -16h254l-6 -61h-239q6 -36 19.5 -67t37 -54.5t57.5 -37t81 -13.5q20 0 41.5 2.5t41 5.5t34.5 6.5t23 6.5l17 -64q-20 -8 -61 -17.5t-112 -9.5z" />
<glyph unicode="$" horiz-adv-x="489" d="M186 -11q-26 1 -53 5t-52 10.5t-46 15t-36 17.5l32 66q36 -17 79.5 -30.5t90.5 -13.5q35 0 65 7t52.5 22.5t35.5 40.5t13 62q0 33 -21.5 57.5t-54 47t-71 44.5t-71 49.5t-53.5 63.5t-20 85q1 39 15.5 69t39.5 51.5t58 34t71 16.5l8 90h76l-11 -88q47 -3 85.5 -14 t60.5 -24l-25 -60q-30 14 -70.5 22.5t-84.5 8.5q-30 0 -56 -5t-45.5 -17.5t-31.5 -33t-12 -51.5q-1 -33 21 -59t54.5 -48.5t70.5 -45.5t70.5 -50.5t54 -62t20.5 -80.5q-1 -44 -15.5 -78t-39 -58t-58.5 -39t-74 -21l-8 -93h-76z" />
<glyph unicode="&#xa2;" horiz-adv-x="452" d="M206 92q-8 -1 -15 -1.5t-14 -0.5q-38 1 -63 20t-39 47.5t-19.5 63.5t-5.5 67q0 68 14 129.5t41.5 110.5t67.5 83t92 46l7 97h76l-12 -92q34 -4 60 -15.5t48 -34.5l-38 -49q-16 14 -39.5 24.5t-53.5 10.5q-54 0 -89 -31t-55.5 -76t-29 -97t-8.5 -94q0 -69 16.5 -105 t38.5 -36q51 0 96.5 18.5t85.5 39.5l27 -55q-23 -16 -54 -31t-63 -26l-8 -105h-76z" />
<glyph unicode="&#xa3;" horiz-adv-x="513" d="M32 67q22 7 40 32.5t30.5 55.5t20 58t9.5 40h-96l7 62h101q7 41 11.5 91t9.5 103q8 77 41 117.5t75.5 58.5t86.5 20.5t74 3.5l-4 -68q-33 -3 -66 -5.5t-60 -15t-45.5 -39t-23.5 -76.5q-5 -51 -9 -100t-12 -90h180l-8 -62h-185q-29 -131 -84 -186h325l-8 -67h-418z" />
<glyph unicode="&#xa5;" horiz-adv-x="631" d="M380 322h189l-7 -67h-218l-12 -100h219l-7 -67h-218l-10 -88h-78l9 88h-207l7 67h206l12 100h-207l7 67h178l-161 385h88l146 -367l235 367h84z" />
<glyph unicode="&#x2116;" horiz-adv-x="1110" d="M895 304q-67 0 -105.5 36t-36.5 99q1 37 12.5 70t33.5 57.5t53.5 38.5t72.5 14q68 0 105 -37t35 -103q-2 -78 -47.5 -126.5t-122.5 -48.5zM901 360q26 0 44 9t29.5 24.5t16.5 35.5t5 42q1 36 -17 62t-62 26q-47 0 -71.5 -33t-25.5 -80q-1 -38 19 -62t62 -24zM724 177h314 l-7 -59h-314zM150 707h116l264 -649l66 649h79l-76 -707h-123l-256 633l-66 -633h-80z" />
</font>
</defs>
</svg>
